<svg xmlns="http://www.w3.org/2000/svg" aria-hidden="true" overflow="hidden" style="position:absolute;width:0;height:0" viewBox="0 0 32 32">
  <defs>
    <symbol id="logo" viewBox="0 0 156 45">
      <path d="M18.9003 37.8037C29.3396 37.8037 37.8019 29.3427 37.8019 18.9008C37.8019 8.46149 29.3396 0.000522614 18.9003 0.000522614C8.46229 0.000522614 0 8.46149 0 18.9008C0 29.3427 8.46229 37.8037 18.9003 37.8037Z" fill="#E30613"/>
      <path d="M17.615 2.08523V35.1123L14.373 34.6151V2.58512L17.615 2.08523Z" fill="white"/>
      <path d="M24.0326 2.92899L24.0962 30.9346C24.0962 30.9346 22.5992 31.7475 18.9236 32.5576L18.8613 29.5026L20.3557 28.2575V6.44544L19.1119 5.82489V2.08435L21.976 2.33628L24.0326 2.92899Z" fill="white"/>
      <path d="M25.4043 3.45814C25.4043 3.45814 26.8682 3.92488 28.5508 5.26277L28.6158 32.0896L25.4971 33.8359L25.4043 3.45814Z" fill="white"/>
      <path d="M9.01743 5.20033V28.3821C6.79777 27.6025 4.27976 22.2774 4.62186 18.1948C4.62186 18.1948 2.3664 17.7943 2.31734 18.2889C1.41568 27.3253 10.3805 33.56 13.0643 34.2402V3.02177L9.01743 5.20033Z" fill="white"/>
      <path d="M30.077 30.751C30.077 30.751 29.9962 26.3037 29.7031 26.6378C35.9749 19.4856 30.1089 10.3736 30.1089 10.3736V6.6357C30.1089 6.6357 42.2388 18.0867 30.077 30.751Z" fill="white"/>
      <path d="M47.002 18.1314H53.3188V22.8889C53.3188 26.1057 54.4419 27.7167 56.6934 27.7167H60.3199H63.9517C66.2258 27.7167 67.3621 26.1057 67.3621 22.8889V3.21958H73.6777V23.943C73.6777 30.3753 71.1252 33.5947 66.0189 33.5947H60.3199H54.5891C49.5306 33.5695 47.002 30.3527 47.002 23.943V18.1314Z" fill="white"/>
      <path d="M90.4203 8.98849V17.4481H101.309H103.847C105.542 17.4216 106.39 16.0187 106.39 13.2342C106.39 10.4033 105.542 8.98849 103.847 8.98849H101.309H90.4203ZM90.4203 33.5957H84.1074V3.21923H101.309H105.263C110.224 3.21923 112.703 5.88176 112.703 11.2028V13.2342V15.1953C112.703 20.5429 110.224 23.2147 105.263 23.2147H101.309H90.4203V33.5957Z" fill="white"/>
      <path d="M126.665 8.95172V27.7154H138.06C142.15 27.7154 144.19 25.9983 144.19 22.5601V18.3873V14.1429C144.19 10.6834 142.15 8.95172 138.06 8.95172H126.665ZM120.35 33.5947V3.21958H139.803C146.94 3.21958 150.505 5.99084 150.505 11.5294V18.3873V25.212C150.505 30.7983 146.94 33.5947 139.803 33.5947H126.665H120.35Z" fill="white"/>
      <path d="M41.0508 39.5908H42.093V40.6661C42.093 41.284 42.3728 41.5903 42.9336 41.5903H43.8446H44.7449C45.3098 41.5903 45.5935 41.284 45.5935 40.6661V36.3846H46.6344V40.5587C46.6344 41.8568 45.9887 42.5039 44.6985 42.5039H43.8446H43.0371C41.7138 42.5039 41.0508 41.8568 41.0508 40.5587V39.5908Z" fill="white"/>
      <path d="M49.2188 40.1003H51.6546L50.4387 37.2442L49.2188 40.1003ZM52.6849 42.5029L52.0458 41.0139H48.8343L48.1992 42.5029H47.1172L49.8526 36.3836H51.0341L53.7682 42.5029H52.6849Z" fill="white"/>
      <path d="M55.3104 37.2955V39.5046H57.8695H58.5431C58.9913 39.4993 59.2167 39.136 59.2167 38.404C59.2114 37.6628 58.9873 37.2955 58.5431 37.2955H57.8695H55.3104ZM55.3104 42.5039H54.2695V36.3846H57.8695H58.4954C59.6742 36.3846 60.2563 36.9428 60.2563 38.0566V38.404V38.7594C60.2563 39.8639 59.6742 40.4168 58.4954 40.4168H57.8695H55.3104V42.5039Z" fill="white"/>
      <path d="M62.6088 40.1003H65.0446L63.83 37.2442L62.6088 40.1003ZM66.0801 42.5029L65.4357 41.0139H62.2242L61.5891 42.5029H60.5098L63.2439 36.3836H64.4267L67.1595 42.5029H66.0801Z" fill="white"/>
      <path d="M68.7702 36.3846L72.5744 41.2098V36.3846H73.602V42.5039H72.4418L68.6376 37.6893V42.5039H67.6113V36.3846H68.7702Z" fill="white"/>
      <path d="M79.1561 37.2955V39.5046H81.7165H82.3888C82.8396 39.4993 83.0651 39.136 83.0651 38.404C83.0597 37.6628 82.833 37.2955 82.3888 37.2955H81.7165H79.1561ZM79.1561 42.5039H78.1152V36.3846H81.7165H82.3424C83.5172 36.3846 84.102 36.9428 84.102 38.0566V38.404V38.7594C84.102 39.8639 83.5172 40.4168 82.3424 40.4168H81.7165H79.1561V42.5039Z" fill="white"/>
      <path d="M84.9531 42.5039V36.3846H90.501V37.2955H85.99V38.945H90.1337V39.8613H85.99V41.5903H90.6415V42.5039H85.99H84.9531Z" fill="white"/>
      <path d="M94.5724 42.5039H93.5342V37.2955H91.0586V36.3846H97.044V37.2955H94.5724V42.5039Z" fill="white"/>
      <path d="M101.088 37.273V41.5903H104.127C104.928 41.5903 105.325 41.3026 105.325 40.7258V39.4462V38.1415C105.325 37.5634 104.928 37.273 104.127 37.273H101.088ZM100.049 42.5039V36.3846H104.127C105.619 36.3846 106.367 37.0873 106.367 38.4876V39.4462V40.4168C106.367 41.8078 105.619 42.5039 104.127 42.5039H101.088H100.049Z" fill="white"/>
      <path d="M107.281 42.5039V36.3846H112.833V37.2955H108.325V38.945H112.466V39.8613H108.325V41.593H112.976V42.5039H108.325H107.281Z" fill="white"/>
      <path d="M117.777 38.9387C119.019 38.9387 119.639 39.44 119.639 40.4371V40.5922V40.754C119.639 41.9208 119.008 42.5029 117.752 42.5029H116.648H115.474C114.256 42.499 113.648 41.9474 113.648 40.8388V40.5127H114.692V40.9675C114.695 41.3825 114.911 41.592 115.342 41.592H116.648H117.878C118.357 41.592 118.598 41.2552 118.598 40.5922C118.592 40.1109 118.353 39.8643 117.878 39.8643H115.543C114.333 39.8643 113.727 39.3352 113.727 38.293V38.1684V38.0278C113.727 36.9326 114.318 36.3836 115.498 36.3836H116.648H117.736C118.373 36.3889 118.837 36.5547 119.138 36.8755C119.422 37.1805 119.561 37.6221 119.561 38.1989H118.521C118.521 37.5982 118.283 37.2959 117.805 37.2959H116.648H115.411C114.981 37.2999 114.77 37.5929 114.77 38.1684C114.77 38.6868 114.981 38.9387 115.411 38.9387H117.777Z" fill="white"/>
      <path d="M121.77 42.5029H120.73V36.3836H121.77V42.5029Z" fill="white"/>
      <path d="M129.452 39.8361V40.9061C129.452 41.9722 128.905 42.5039 127.807 42.5039H126.165H124.924C123.582 42.5039 122.914 41.9231 122.914 40.7642V39.4449V38.1866C122.914 36.9852 123.565 36.3833 124.862 36.3833H126.165H127.58C128.803 36.3833 129.413 36.8447 129.413 37.7689V38.4809H128.373V37.9439C128.373 37.513 128.104 37.2955 127.572 37.2955H126.165H124.826C124.245 37.2955 123.955 37.574 123.955 38.1322V39.4449V40.7947C123.955 41.3251 124.235 41.5916 124.8 41.5916H126.165H127.589C128.185 41.5916 128.483 41.3304 128.483 40.8027V39.8361H126.165V38.9914H129.452V39.8361Z" fill="white"/>
      <path d="M131.527 36.3846L135.332 41.2098V36.3846H136.358V42.5039H135.199L131.392 37.6893V42.5039H130.367V36.3846H131.527Z" fill="white"/>
      <path d="M156.003 45H41.0527V43.8424H156.003V45Z" fill="white"/>
      <path d="M137.994 41.5924V40.9573V40.3367C137.994 39.7201 138.285 39.4112 138.864 39.4112H139.447H140.023C140.606 39.4112 140.895 39.6538 140.895 40.1391V40.6284H140.053V40.4282C140.053 40.2373 139.931 40.1391 139.687 40.1391H139.447H139.198C138.955 40.1418 138.837 40.3049 138.837 40.6284V40.9573V41.302C138.837 41.6494 138.955 41.8258 139.198 41.8258H139.447H139.683C139.931 41.8258 140.053 41.6733 140.053 41.3723V41.0713H140.895V41.66C140.895 42.2554 140.606 42.5537 140.023 42.5537H139.447H138.859C138.282 42.5537 137.994 42.2315 137.994 41.5924Z" fill="white"/>
      <path d="M142.644 41.8248H142.946H143.24C143.547 41.8248 143.698 41.6564 143.698 41.3116V40.9801V40.6407C143.698 40.3052 143.547 40.1395 143.243 40.1395H142.946H142.644C142.347 40.1408 142.199 40.3066 142.199 40.6407V40.9801V41.3116C142.202 41.6564 142.352 41.8248 142.644 41.8248ZM142.946 39.4115H143.58C144.219 39.4142 144.538 39.7298 144.538 40.3516V40.9801V41.6047C144.538 42.2345 144.219 42.5527 143.58 42.5527H142.946H142.307C141.674 42.5527 141.357 42.2345 141.357 41.6047V40.9801V40.3516C141.357 39.7231 141.674 39.4115 142.307 39.4115H142.946Z" fill="white"/>
      <path d="M145.844 42.375H144.998V41.4243H145.844V42.375Z" fill="white"/>
      <path d="M146.918 43.0322H146.324L146.668 42.4448H146.353V41.4106H147.226V42.4448L146.918 43.0322Z" fill="white"/>
      <path d="M148.626 42.5537H147.781V38.4949H148.626V42.5537Z" fill="white"/>
      <path d="M149.08 39.9379V39.198H149.451V38.494H150.296V39.198H151.188V39.9379H150.296V41.4363C150.296 41.6842 150.437 41.8089 150.719 41.8089H151.188V42.5527H150.368C149.759 42.5474 149.451 42.2332 149.451 41.6126V39.9379H149.08Z" fill="white"/>
      <path d="M152.405 41.3024C152.405 41.6498 152.509 41.8261 152.721 41.8261H152.944H153.153C153.372 41.8261 153.483 41.6498 153.483 41.3024V40.9576V40.6288C153.483 40.2999 153.372 40.1395 153.153 40.1395H152.944H152.721C152.509 40.1421 152.405 40.3052 152.405 40.6288V40.9576V41.3024ZM151.557 40.9576V40.3357C151.563 39.7205 151.814 39.4115 152.312 39.4115H152.815C153.038 39.4115 153.262 39.5123 153.483 39.7152V38.4953H154.327V42.5527H153.483V42.2345C153.262 42.444 153.038 42.5527 152.815 42.5527H152.312C151.81 42.5527 151.557 42.2319 151.557 41.5927V40.9576Z" fill="white"/>
      <path d="M155.64 42.375H154.801V41.4243H155.64V42.375Z" fill="white"/>
      <path d="M46.5723 17.704H52.8892V22.4589C52.8892 25.6783 54.0122 27.2867 56.2637 27.2867H59.8916H63.522C65.7961 27.2867 66.9324 25.6783 66.9324 22.4589V2.79219H73.2493V23.513C73.2493 29.9479 70.6955 33.166 65.5892 33.166H59.8916H54.1594C49.1022 33.1421 46.5723 29.924 46.5723 23.513V17.704Z" fill="#1D1D1B"/>
      <path d="M89.9913 8.55978V17.0207H100.88H103.419C105.113 16.9942 105.961 15.5914 105.961 12.8068C105.961 9.97591 105.113 8.55978 103.419 8.55978H100.88H89.9913ZM89.9913 33.167H83.6797V2.79184H100.88H104.835C109.795 2.79184 112.274 5.45305 112.274 10.7741V12.8068V14.7679C112.274 20.1155 109.795 22.7874 104.835 22.7874H100.88H89.9913V33.167Z" fill="#1D1D1B"/>
      <path d="M126.239 8.523V27.2854H137.634C141.722 27.2854 143.764 25.5683 143.764 22.1327V17.9599V13.7155C143.764 10.256 141.722 8.523 137.634 8.523H126.239ZM119.922 33.166V2.79219H139.375C146.511 2.79219 150.078 5.56346 150.078 11.1007V17.9599V24.7846C150.078 30.3709 146.511 33.166 139.375 33.166H126.239H119.922Z" fill="#1D1D1B"/>
      <path d="M40.623 39.163H41.6653V40.2384C41.6653 40.8563 41.945 41.1626 42.5072 41.1626H43.4182H44.3185C44.882 41.1626 45.1658 40.8563 45.1658 40.2384V35.9569H46.2067V40.1297C46.2067 41.4265 45.5609 42.0762 44.2708 42.0762H43.4182H42.6107C41.286 42.0762 40.623 41.4265 40.623 40.1297V39.163Z" fill="#1D1D1B"/>
      <path d="M48.7911 39.6726H51.2269L50.0097 36.8164L48.7911 39.6726ZM52.2572 42.0752L51.6167 40.5848H48.4066L47.7714 42.0752H46.6895L49.4249 35.9559H50.605L53.3405 42.0752H52.2572Z" fill="#1D1D1B"/>
      <path d="M54.8821 36.8674V39.0752H57.4412H58.1147C58.5629 39.0712 58.7883 38.7079 58.7883 37.9746C58.783 37.2361 58.5589 36.8674 58.1147 36.8674H57.4412H54.8821ZM54.8821 42.0771H53.8398V35.9565H57.4412H58.067C59.2445 35.9565 59.8292 36.5147 59.8292 37.6285V37.9746V38.3313C59.8292 39.4358 59.2445 39.9888 58.067 39.9888H57.4412H54.8821V42.0771Z" fill="#1D1D1B"/>
      <path d="M62.181 39.6726H64.6168L63.4022 36.8164L62.181 39.6726ZM65.6511 42.0752L65.0067 40.5848H61.7978L61.1614 42.0752H60.082L62.8162 35.9559H63.9976L66.7304 42.0752H65.6511Z" fill="#1D1D1B"/>
      <path d="M68.3425 35.9569L72.1467 40.782V35.9569H73.1756V42.0762H72.0141L68.2099 37.2616V42.0762H67.1836V35.9569H68.3425Z" fill="#1D1D1B"/>
      <path d="M78.7264 36.8674V39.0752H81.2869H81.9604C82.4113 39.0712 82.6367 38.7079 82.6367 37.9746C82.6314 37.2361 82.4033 36.8674 81.9604 36.8674H81.2869H78.7264ZM78.7264 42.0771H77.6855V35.9565H81.2869H81.914C83.0875 35.9565 83.6723 36.5147 83.6723 37.6285V37.9746V38.3313C83.6723 39.4358 83.0875 39.9888 81.914 39.9888H81.2869H78.7264V42.0771Z" fill="#1D1D1B"/>
      <path d="M84.5254 42.0762V35.9569H90.0732V36.8665H85.5636V38.5173H89.7073V39.4322H85.5636V41.1626H90.2151V42.0762H85.5636H84.5254Z" fill="#1D1D1B"/>
      <path d="M94.146 42.0762H93.1064V36.8665H90.6309V35.9569H96.6163V36.8665H94.146V42.0762Z" fill="#1D1D1B"/>
      <path d="M100.66 36.8439V41.1626H103.699C104.499 41.1626 104.895 40.8735 104.895 40.2967V39.0185V37.7124C104.895 37.1356 104.499 36.8439 103.699 36.8439H100.66ZM99.6191 42.0762V35.9569H103.699C105.191 35.9569 105.939 36.6583 105.939 38.0598V39.0185V39.9891C105.939 41.38 105.191 42.0762 103.699 42.0762H100.66H99.6191Z" fill="#1D1D1B"/>
      <path d="M106.854 42.0762V35.9569H112.407V36.8665H107.896V38.5173H112.039V39.4322H107.896V41.1652H112.55V42.0762H107.896H106.854Z" fill="#1D1D1B"/>
      <path d="M117.348 38.5107C118.591 38.5107 119.211 39.0132 119.211 40.0103V40.1628V40.3259C119.211 41.4941 118.58 42.0762 117.323 42.0762H116.22H115.045C113.828 42.0722 113.221 41.5179 113.221 40.4108V40.0846H114.263V40.5381C114.266 40.9557 114.483 41.1652 114.913 41.1652H116.22H117.448C117.928 41.1652 118.171 40.8284 118.171 40.1628C118.164 39.6815 117.924 39.4375 117.448 39.4375H115.114C113.904 39.4362 113.298 38.9071 113.298 37.8662V37.7416V37.601C113.298 36.5058 113.89 35.9569 115.069 35.9569H116.22H117.309C117.945 35.9622 118.409 36.1266 118.709 36.4461C118.994 36.7538 119.132 37.1953 119.132 37.7721H118.092C118.092 37.1714 117.855 36.8678 117.378 36.8678H116.22H114.98C114.553 36.8731 114.341 37.1661 114.341 37.7416C114.341 38.2587 114.553 38.5107 114.98 38.5107H117.348Z" fill="#1D1D1B"/>
      <path d="M121.343 42.0762H120.301V35.9569H121.343V42.0762Z" fill="#1D1D1B"/>
      <path d="M129.023 39.4093V40.4794C129.023 41.5454 128.477 42.0771 127.378 42.0771H125.735H124.496C123.155 42.0771 122.486 41.4964 122.486 40.3362V39.0182V37.7572C122.486 36.5585 123.136 35.9565 124.433 35.9565H125.735H127.152C128.374 35.9565 128.985 36.4179 128.985 37.3408V38.0529H127.945V37.5158C127.945 37.0849 127.675 36.8674 127.144 36.8674H125.735H124.396C123.818 36.8674 123.526 37.1459 123.526 37.7041V39.0182V40.3667C123.526 40.8984 123.807 41.1649 124.372 41.1649H125.735H127.16C127.756 41.1649 128.053 40.9037 128.053 40.3759V39.4093H125.735V38.5647H129.023V39.4093Z" fill="#1D1D1B"/>
      <path d="M131.096 35.9569L134.903 40.782V35.9569H135.93V42.0762H134.769L130.964 37.2616V42.0762H129.938V35.9569H131.096Z" fill="#1D1D1B"/>
      <path d="M155.571 44.5703H40.6211V43.4154H155.571V44.5703Z" fill="#1D1D1B"/>
      <path d="M137.562 41.1647V40.5295V39.909C137.562 39.2911 137.854 38.9821 138.435 38.9821H139.017H139.593C140.176 38.9821 140.466 39.2248 140.466 39.7101V40.2007H139.622V39.9991C139.622 39.8082 139.501 39.7101 139.257 39.7101H139.017H138.769C138.525 39.7141 138.407 39.8771 138.407 40.2007V40.5295V40.8729C138.407 41.2217 138.525 41.398 138.769 41.398H139.017H139.254C139.501 41.398 139.622 41.2455 139.622 40.9445V40.6436H140.466V41.2323C140.466 41.8276 140.176 42.126 139.593 42.126H139.017H138.43C137.852 42.126 137.562 41.8038 137.562 41.1647Z" fill="#1D1D1B"/>
      <path d="M142.217 41.398H142.518H142.813C143.118 41.398 143.269 41.2296 143.269 40.8849V40.5534V40.2139C143.269 39.8785 143.118 39.7114 142.816 39.7114H142.518H142.217C141.92 39.7141 141.771 39.8785 141.771 40.2139V40.5534V40.8849C141.775 41.2296 141.924 41.398 142.217 41.398ZM142.518 38.9834H143.153C143.792 38.9861 144.111 39.3017 144.111 39.9249V40.5534V41.1753C144.111 41.8077 143.792 42.126 143.153 42.126H142.518H141.878C141.245 42.126 140.928 41.8077 140.928 41.1753V40.5534V39.9249C140.928 39.295 141.245 38.9834 141.878 38.9834H142.518Z" fill="#1D1D1B"/>
      <path d="M145.416 41.9453H144.568V40.9972H145.416V41.9453Z" fill="#1D1D1B"/>
      <path d="M146.49 42.6016H145.895L146.239 42.0168H145.924V40.9826H146.795V42.0168L146.49 42.6016Z" fill="#1D1D1B"/>
      <path d="M148.199 42.125H147.354V38.0649H148.199V42.125Z" fill="#1D1D1B"/>
      <path d="M148.65 39.5112V38.7713H149.023V38.0659H149.868V38.7713H150.759V39.5112H149.868V41.0069C149.868 41.2575 150.007 41.3821 150.289 41.3821H150.759V42.126H149.938C149.329 42.1207 149.023 41.8064 149.023 41.1832V39.5112H148.65Z" fill="#1D1D1B"/>
      <path d="M151.978 40.8733C151.978 41.222 152.081 41.3984 152.293 41.3984H152.515H152.725C152.944 41.3984 153.054 41.222 153.054 40.8733V40.5299V40.201C153.054 39.8722 152.944 39.7104 152.725 39.7104H152.515H152.293C152.081 39.7144 151.978 39.8775 151.978 40.201V40.5299V40.8733ZM151.129 40.5299V39.908C151.136 39.2914 151.385 38.9825 151.885 38.9825H152.387C152.607 38.9825 152.834 39.0832 153.054 39.2874V38.0662H153.896V42.125H153.054V41.8068C152.834 42.0163 152.607 42.125 152.387 42.125H151.885C151.382 42.125 151.129 41.8041 151.129 41.165V40.5299Z" fill="#1D1D1B"/>
      <path d="M155.213 41.9453H154.371V40.9972H155.213V41.9453Z" fill="#1D1D1B"/>
    </symbol>
    <symbol id="arrow" width="24" height="24" viewBox="0 0 24 24" >
      <path d="M15.229 3C16.2783 5.46854 17.2316 7.07398 18.401 8.25914C19.5111 9.3842 20.8699 10.1838 22.8341 10.9467C23.4897 11.0302 24 11.6807 24 12.4709C24 13.1509 23.6219 13.7271 23.0987 13.928L23.1064 13.9485C20.9941 14.7433 19.5618 15.5645 18.401 16.7409C17.2316 17.926 16.2783 19.5315 15.229 22L13.6238 21.3122C14.7079 18.7616 15.7654 16.9219 17.1611 15.5074C18.0627 14.5937 19.0812 13.8821 20.2875 13.2665H0V11.514H19.8727C18.845 10.9492 17.9575 10.2997 17.1611 9.49264C15.7654 8.07807 14.7079 6.23842 13.6238 3.68777L15.229 3Z"/>
    </symbol>
    <symbol id="address" width="20" height="20" viewBox="0 0 20 20" fill="none">
      <g clip-path="url(#clip0_211_2153)">
      <path d="M1.07994 2.77761V1.6665H17.9177V2.77761H1.07994ZM1.16549 18.3332V11.6665H-0.201172V10.5554L1.07994 4.99984H17.9177L19.1999 10.5554V11.6665H17.8322V18.3332H16.721V11.6665H11.1655V18.3332H1.16549ZM2.27661 17.2221H10.0544V11.6665H2.27661V17.2221ZM0.921051 10.5554H18.0766L17.0455 6.11095H1.95216L0.921051 10.5554Z" fill="#CFC1B5"/>
      </g>
      <defs>
      <clipPath id="clip0_211_2153">
      <rect width="20" height="20" fill="white"/>
      </clipPath>
      </defs>
    </symbol>

  </defs>
</svg>