<svg xmlns="http://www.w3.org/2000/svg" aria-hidden="true" overflow="hidden" style="position:absolute;width:0;height:0" viewBox="0 0 32 32">
  <defs>
    <symbol id="logo" viewBox="0 0 156 45">
      <path d="M18.9003 37.8037C29.3396 37.8037 37.8019 29.3427 37.8019 18.9008C37.8019 8.46149 29.3396 0.000522614 18.9003 0.000522614C8.46229 0.000522614 0 8.46149 0 18.9008C0 29.3427 8.46229 37.8037 18.9003 37.8037Z" fill="#E30613"/>
      <path d="M17.615 2.08523V35.1123L14.373 34.6151V2.58512L17.615 2.08523Z" fill="white"/>
      <path d="M24.0326 2.92899L24.0962 30.9346C24.0962 30.9346 22.5992 31.7475 18.9236 32.5576L18.8613 29.5026L20.3557 28.2575V6.44544L19.1119 5.82489V2.08435L21.976 2.33628L24.0326 2.92899Z" fill="white"/>
      <path d="M25.4043 3.45814C25.4043 3.45814 26.8682 3.92488 28.5508 5.26277L28.6158 32.0896L25.4971 33.8359L25.4043 3.45814Z" fill="white"/>
      <path d="M9.01743 5.20033V28.3821C6.79777 27.6025 4.27976 22.2774 4.62186 18.1948C4.62186 18.1948 2.3664 17.7943 2.31734 18.2889C1.41568 27.3253 10.3805 33.56 13.0643 34.2402V3.02177L9.01743 5.20033Z" fill="white"/>
      <path d="M30.077 30.751C30.077 30.751 29.9962 26.3037 29.7031 26.6378C35.9749 19.4856 30.1089 10.3736 30.1089 10.3736V6.6357C30.1089 6.6357 42.2388 18.0867 30.077 30.751Z" fill="white"/>
      <path d="M47.002 18.1314H53.3188V22.8889C53.3188 26.1057 54.4419 27.7167 56.6934 27.7167H60.3199H63.9517C66.2258 27.7167 67.3621 26.1057 67.3621 22.8889V3.21958H73.6777V23.943C73.6777 30.3753 71.1252 33.5947 66.0189 33.5947H60.3199H54.5891C49.5306 33.5695 47.002 30.3527 47.002 23.943V18.1314Z" fill="white"/>
      <path d="M90.4203 8.98849V17.4481H101.309H103.847C105.542 17.4216 106.39 16.0187 106.39 13.2342C106.39 10.4033 105.542 8.98849 103.847 8.98849H101.309H90.4203ZM90.4203 33.5957H84.1074V3.21923H101.309H105.263C110.224 3.21923 112.703 5.88176 112.703 11.2028V13.2342V15.1953C112.703 20.5429 110.224 23.2147 105.263 23.2147H101.309H90.4203V33.5957Z" fill="white"/>
      <path d="M126.665 8.95172V27.7154H138.06C142.15 27.7154 144.19 25.9983 144.19 22.5601V18.3873V14.1429C144.19 10.6834 142.15 8.95172 138.06 8.95172H126.665ZM120.35 33.5947V3.21958H139.803C146.94 3.21958 150.505 5.99084 150.505 11.5294V18.3873V25.212C150.505 30.7983 146.94 33.5947 139.803 33.5947H126.665H120.35Z" fill="white"/>
      <path d="M41.0508 39.5908H42.093V40.6661C42.093 41.284 42.3728 41.5903 42.9336 41.5903H43.8446H44.7449C45.3098 41.5903 45.5935 41.284 45.5935 40.6661V36.3846H46.6344V40.5587C46.6344 41.8568 45.9887 42.5039 44.6985 42.5039H43.8446H43.0371C41.7138 42.5039 41.0508 41.8568 41.0508 40.5587V39.5908Z" fill="white"/>
      <path d="M49.2188 40.1003H51.6546L50.4387 37.2442L49.2188 40.1003ZM52.6849 42.5029L52.0458 41.0139H48.8343L48.1992 42.5029H47.1172L49.8526 36.3836H51.0341L53.7682 42.5029H52.6849Z" fill="white"/>
      <path d="M55.3104 37.2955V39.5046H57.8695H58.5431C58.9913 39.4993 59.2167 39.136 59.2167 38.404C59.2114 37.6628 58.9873 37.2955 58.5431 37.2955H57.8695H55.3104ZM55.3104 42.5039H54.2695V36.3846H57.8695H58.4954C59.6742 36.3846 60.2563 36.9428 60.2563 38.0566V38.404V38.7594C60.2563 39.8639 59.6742 40.4168 58.4954 40.4168H57.8695H55.3104V42.5039Z" fill="white"/>
      <path d="M62.6088 40.1003H65.0446L63.83 37.2442L62.6088 40.1003ZM66.0801 42.5029L65.4357 41.0139H62.2242L61.5891 42.5029H60.5098L63.2439 36.3836H64.4267L67.1595 42.5029H66.0801Z" fill="white"/>
      <path d="M68.7702 36.3846L72.5744 41.2098V36.3846H73.602V42.5039H72.4418L68.6376 37.6893V42.5039H67.6113V36.3846H68.7702Z" fill="white"/>
      <path d="M79.1561 37.2955V39.5046H81.7165H82.3888C82.8396 39.4993 83.0651 39.136 83.0651 38.404C83.0597 37.6628 82.833 37.2955 82.3888 37.2955H81.7165H79.1561ZM79.1561 42.5039H78.1152V36.3846H81.7165H82.3424C83.5172 36.3846 84.102 36.9428 84.102 38.0566V38.404V38.7594C84.102 39.8639 83.5172 40.4168 82.3424 40.4168H81.7165H79.1561V42.5039Z" fill="white"/>
      <path d="M84.9531 42.5039V36.3846H90.501V37.2955H85.99V38.945H90.1337V39.8613H85.99V41.5903H90.6415V42.5039H85.99H84.9531Z" fill="white"/>
      <path d="M94.5724 42.5039H93.5342V37.2955H91.0586V36.3846H97.044V37.2955H94.5724V42.5039Z" fill="white"/>
      <path d="M101.088 37.273V41.5903H104.127C104.928 41.5903 105.325 41.3026 105.325 40.7258V39.4462V38.1415C105.325 37.5634 104.928 37.273 104.127 37.273H101.088ZM100.049 42.5039V36.3846H104.127C105.619 36.3846 106.367 37.0873 106.367 38.4876V39.4462V40.4168C106.367 41.8078 105.619 42.5039 104.127 42.5039H101.088H100.049Z" fill="white"/>
      <path d="M107.281 42.5039V36.3846H112.833V37.2955H108.325V38.945H112.466V39.8613H108.325V41.593H112.976V42.5039H108.325H107.281Z" fill="white"/>
      <path d="M117.777 38.9387C119.019 38.9387 119.639 39.44 119.639 40.4371V40.5922V40.754C119.639 41.9208 119.008 42.5029 117.752 42.5029H116.648H115.474C114.256 42.499 113.648 41.9474 113.648 40.8388V40.5127H114.692V40.9675C114.695 41.3825 114.911 41.592 115.342 41.592H116.648H117.878C118.357 41.592 118.598 41.2552 118.598 40.5922C118.592 40.1109 118.353 39.8643 117.878 39.8643H115.543C114.333 39.8643 113.727 39.3352 113.727 38.293V38.1684V38.0278C113.727 36.9326 114.318 36.3836 115.498 36.3836H116.648H117.736C118.373 36.3889 118.837 36.5547 119.138 36.8755C119.422 37.1805 119.561 37.6221 119.561 38.1989H118.521C118.521 37.5982 118.283 37.2959 117.805 37.2959H116.648H115.411C114.981 37.2999 114.77 37.5929 114.77 38.1684C114.77 38.6868 114.981 38.9387 115.411 38.9387H117.777Z" fill="white"/>
      <path d="M121.77 42.5029H120.73V36.3836H121.77V42.5029Z" fill="white"/>
      <path d="M129.452 39.8361V40.9061C129.452 41.9722 128.905 42.5039 127.807 42.5039H126.165H124.924C123.582 42.5039 122.914 41.9231 122.914 40.7642V39.4449V38.1866C122.914 36.9852 123.565 36.3833 124.862 36.3833H126.165H127.58C128.803 36.3833 129.413 36.8447 129.413 37.7689V38.4809H128.373V37.9439C128.373 37.513 128.104 37.2955 127.572 37.2955H126.165H124.826C124.245 37.2955 123.955 37.574 123.955 38.1322V39.4449V40.7947C123.955 41.3251 124.235 41.5916 124.8 41.5916H126.165H127.589C128.185 41.5916 128.483 41.3304 128.483 40.8027V39.8361H126.165V38.9914H129.452V39.8361Z" fill="white"/>
      <path d="M131.527 36.3846L135.332 41.2098V36.3846H136.358V42.5039H135.199L131.392 37.6893V42.5039H130.367V36.3846H131.527Z" fill="white"/>
      <path d="M156.003 45H41.0527V43.8424H156.003V45Z" fill="white"/>
      <path d="M137.994 41.5924V40.9573V40.3367C137.994 39.7201 138.285 39.4112 138.864 39.4112H139.447H140.023C140.606 39.4112 140.895 39.6538 140.895 40.1391V40.6284H140.053V40.4282C140.053 40.2373 139.931 40.1391 139.687 40.1391H139.447H139.198C138.955 40.1418 138.837 40.3049 138.837 40.6284V40.9573V41.302C138.837 41.6494 138.955 41.8258 139.198 41.8258H139.447H139.683C139.931 41.8258 140.053 41.6733 140.053 41.3723V41.0713H140.895V41.66C140.895 42.2554 140.606 42.5537 140.023 42.5537H139.447H138.859C138.282 42.5537 137.994 42.2315 137.994 41.5924Z" fill="white"/>
      <path d="M142.644 41.8248H142.946H143.24C143.547 41.8248 143.698 41.6564 143.698 41.3116V40.9801V40.6407C143.698 40.3052 143.547 40.1395 143.243 40.1395H142.946H142.644C142.347 40.1408 142.199 40.3066 142.199 40.6407V40.9801V41.3116C142.202 41.6564 142.352 41.8248 142.644 41.8248ZM142.946 39.4115H143.58C144.219 39.4142 144.538 39.7298 144.538 40.3516V40.9801V41.6047C144.538 42.2345 144.219 42.5527 143.58 42.5527H142.946H142.307C141.674 42.5527 141.357 42.2345 141.357 41.6047V40.9801V40.3516C141.357 39.7231 141.674 39.4115 142.307 39.4115H142.946Z" fill="white"/>
      <path d="M145.844 42.375H144.998V41.4243H145.844V42.375Z" fill="white"/>
      <path d="M146.918 43.0322H146.324L146.668 42.4448H146.353V41.4106H147.226V42.4448L146.918 43.0322Z" fill="white"/>
      <path d="M148.626 42.5537H147.781V38.4949H148.626V42.5537Z" fill="white"/>
      <path d="M149.08 39.9379V39.198H149.451V38.494H150.296V39.198H151.188V39.9379H150.296V41.4363C150.296 41.6842 150.437 41.8089 150.719 41.8089H151.188V42.5527H150.368C149.759 42.5474 149.451 42.2332 149.451 41.6126V39.9379H149.08Z" fill="white"/>
      <path d="M152.405 41.3024C152.405 41.6498 152.509 41.8261 152.721 41.8261H152.944H153.153C153.372 41.8261 153.483 41.6498 153.483 41.3024V40.9576V40.6288C153.483 40.2999 153.372 40.1395 153.153 40.1395H152.944H152.721C152.509 40.1421 152.405 40.3052 152.405 40.6288V40.9576V41.3024ZM151.557 40.9576V40.3357C151.563 39.7205 151.814 39.4115 152.312 39.4115H152.815C153.038 39.4115 153.262 39.5123 153.483 39.7152V38.4953H154.327V42.5527H153.483V42.2345C153.262 42.444 153.038 42.5527 152.815 42.5527H152.312C151.81 42.5527 151.557 42.2319 151.557 41.5927V40.9576Z" fill="white"/>
      <path d="M155.64 42.375H154.801V41.4243H155.64V42.375Z" fill="white"/>
      <path d="M46.5723 17.704H52.8892V22.4589C52.8892 25.6783 54.0122 27.2867 56.2637 27.2867H59.8916H63.522C65.7961 27.2867 66.9324 25.6783 66.9324 22.4589V2.79219H73.2493V23.513C73.2493 29.9479 70.6955 33.166 65.5892 33.166H59.8916H54.1594C49.1022 33.1421 46.5723 29.924 46.5723 23.513V17.704Z" fill="#1D1D1B"/>
      <path d="M89.9913 8.55978V17.0207H100.88H103.419C105.113 16.9942 105.961 15.5914 105.961 12.8068C105.961 9.97591 105.113 8.55978 103.419 8.55978H100.88H89.9913ZM89.9913 33.167H83.6797V2.79184H100.88H104.835C109.795 2.79184 112.274 5.45305 112.274 10.7741V12.8068V14.7679C112.274 20.1155 109.795 22.7874 104.835 22.7874H100.88H89.9913V33.167Z" fill="#1D1D1B"/>
      <path d="M126.239 8.523V27.2854H137.634C141.722 27.2854 143.764 25.5683 143.764 22.1327V17.9599V13.7155C143.764 10.256 141.722 8.523 137.634 8.523H126.239ZM119.922 33.166V2.79219H139.375C146.511 2.79219 150.078 5.56346 150.078 11.1007V17.9599V24.7846C150.078 30.3709 146.511 33.166 139.375 33.166H126.239H119.922Z" fill="#1D1D1B"/>
      <path d="M40.623 39.163H41.6653V40.2384C41.6653 40.8563 41.945 41.1626 42.5072 41.1626H43.4182H44.3185C44.882 41.1626 45.1658 40.8563 45.1658 40.2384V35.9569H46.2067V40.1297C46.2067 41.4265 45.5609 42.0762 44.2708 42.0762H43.4182H42.6107C41.286 42.0762 40.623 41.4265 40.623 40.1297V39.163Z" fill="#1D1D1B"/>
      <path d="M48.7911 39.6726H51.2269L50.0097 36.8164L48.7911 39.6726ZM52.2572 42.0752L51.6167 40.5848H48.4066L47.7714 42.0752H46.6895L49.4249 35.9559H50.605L53.3405 42.0752H52.2572Z" fill="#1D1D1B"/>
      <path d="M54.8821 36.8674V39.0752H57.4412H58.1147C58.5629 39.0712 58.7883 38.7079 58.7883 37.9746C58.783 37.2361 58.5589 36.8674 58.1147 36.8674H57.4412H54.8821ZM54.8821 42.0771H53.8398V35.9565H57.4412H58.067C59.2445 35.9565 59.8292 36.5147 59.8292 37.6285V37.9746V38.3313C59.8292 39.4358 59.2445 39.9888 58.067 39.9888H57.4412H54.8821V42.0771Z" fill="#1D1D1B"/>
      <path d="M62.181 39.6726H64.6168L63.4022 36.8164L62.181 39.6726ZM65.6511 42.0752L65.0067 40.5848H61.7978L61.1614 42.0752H60.082L62.8162 35.9559H63.9976L66.7304 42.0752H65.6511Z" fill="#1D1D1B"/>
      <path d="M68.3425 35.9569L72.1467 40.782V35.9569H73.1756V42.0762H72.0141L68.2099 37.2616V42.0762H67.1836V35.9569H68.3425Z" fill="#1D1D1B"/>
      <path d="M78.7264 36.8674V39.0752H81.2869H81.9604C82.4113 39.0712 82.6367 38.7079 82.6367 37.9746C82.6314 37.2361 82.4033 36.8674 81.9604 36.8674H81.2869H78.7264ZM78.7264 42.0771H77.6855V35.9565H81.2869H81.914C83.0875 35.9565 83.6723 36.5147 83.6723 37.6285V37.9746V38.3313C83.6723 39.4358 83.0875 39.9888 81.914 39.9888H81.2869H78.7264V42.0771Z" fill="#1D1D1B"/>
      <path d="M84.5254 42.0762V35.9569H90.0732V36.8665H85.5636V38.5173H89.7073V39.4322H85.5636V41.1626H90.2151V42.0762H85.5636H84.5254Z" fill="#1D1D1B"/>
      <path d="M94.146 42.0762H93.1064V36.8665H90.6309V35.9569H96.6163V36.8665H94.146V42.0762Z" fill="#1D1D1B"/>
      <path d="M100.66 36.8439V41.1626H103.699C104.499 41.1626 104.895 40.8735 104.895 40.2967V39.0185V37.7124C104.895 37.1356 104.499 36.8439 103.699 36.8439H100.66ZM99.6191 42.0762V35.9569H103.699C105.191 35.9569 105.939 36.6583 105.939 38.0598V39.0185V39.9891C105.939 41.38 105.191 42.0762 103.699 42.0762H100.66H99.6191Z" fill="#1D1D1B"/>
      <path d="M106.854 42.0762V35.9569H112.407V36.8665H107.896V38.5173H112.039V39.4322H107.896V41.1652H112.55V42.0762H107.896H106.854Z" fill="#1D1D1B"/>
      <path d="M117.348 38.5107C118.591 38.5107 119.211 39.0132 119.211 40.0103V40.1628V40.3259C119.211 41.4941 118.58 42.0762 117.323 42.0762H116.22H115.045C113.828 42.0722 113.221 41.5179 113.221 40.4108V40.0846H114.263V40.5381C114.266 40.9557 114.483 41.1652 114.913 41.1652H116.22H117.448C117.928 41.1652 118.171 40.8284 118.171 40.1628C118.164 39.6815 117.924 39.4375 117.448 39.4375H115.114C113.904 39.4362 113.298 38.9071 113.298 37.8662V37.7416V37.601C113.298 36.5058 113.89 35.9569 115.069 35.9569H116.22H117.309C117.945 35.9622 118.409 36.1266 118.709 36.4461C118.994 36.7538 119.132 37.1953 119.132 37.7721H118.092C118.092 37.1714 117.855 36.8678 117.378 36.8678H116.22H114.98C114.553 36.8731 114.341 37.1661 114.341 37.7416C114.341 38.2587 114.553 38.5107 114.98 38.5107H117.348Z" fill="#1D1D1B"/>
      <path d="M121.343 42.0762H120.301V35.9569H121.343V42.0762Z" fill="#1D1D1B"/>
      <path d="M129.023 39.4093V40.4794C129.023 41.5454 128.477 42.0771 127.378 42.0771H125.735H124.496C123.155 42.0771 122.486 41.4964 122.486 40.3362V39.0182V37.7572C122.486 36.5585 123.136 35.9565 124.433 35.9565H125.735H127.152C128.374 35.9565 128.985 36.4179 128.985 37.3408V38.0529H127.945V37.5158C127.945 37.0849 127.675 36.8674 127.144 36.8674H125.735H124.396C123.818 36.8674 123.526 37.1459 123.526 37.7041V39.0182V40.3667C123.526 40.8984 123.807 41.1649 124.372 41.1649H125.735H127.16C127.756 41.1649 128.053 40.9037 128.053 40.3759V39.4093H125.735V38.5647H129.023V39.4093Z" fill="#1D1D1B"/>
      <path d="M131.096 35.9569L134.903 40.782V35.9569H135.93V42.0762H134.769L130.964 37.2616V42.0762H129.938V35.9569H131.096Z" fill="#1D1D1B"/>
      <path d="M155.571 44.5703H40.6211V43.4154H155.571V44.5703Z" fill="#1D1D1B"/>
      <path d="M137.562 41.1647V40.5295V39.909C137.562 39.2911 137.854 38.9821 138.435 38.9821H139.017H139.593C140.176 38.9821 140.466 39.2248 140.466 39.7101V40.2007H139.622V39.9991C139.622 39.8082 139.501 39.7101 139.257 39.7101H139.017H138.769C138.525 39.7141 138.407 39.8771 138.407 40.2007V40.5295V40.8729C138.407 41.2217 138.525 41.398 138.769 41.398H139.017H139.254C139.501 41.398 139.622 41.2455 139.622 40.9445V40.6436H140.466V41.2323C140.466 41.8276 140.176 42.126 139.593 42.126H139.017H138.43C137.852 42.126 137.562 41.8038 137.562 41.1647Z" fill="#1D1D1B"/>
      <path d="M142.217 41.398H142.518H142.813C143.118 41.398 143.269 41.2296 143.269 40.8849V40.5534V40.2139C143.269 39.8785 143.118 39.7114 142.816 39.7114H142.518H142.217C141.92 39.7141 141.771 39.8785 141.771 40.2139V40.5534V40.8849C141.775 41.2296 141.924 41.398 142.217 41.398ZM142.518 38.9834H143.153C143.792 38.9861 144.111 39.3017 144.111 39.9249V40.5534V41.1753C144.111 41.8077 143.792 42.126 143.153 42.126H142.518H141.878C141.245 42.126 140.928 41.8077 140.928 41.1753V40.5534V39.9249C140.928 39.295 141.245 38.9834 141.878 38.9834H142.518Z" fill="#1D1D1B"/>
      <path d="M145.416 41.9453H144.568V40.9972H145.416V41.9453Z" fill="#1D1D1B"/>
      <path d="M146.49 42.6016H145.895L146.239 42.0168H145.924V40.9826H146.795V42.0168L146.49 42.6016Z" fill="#1D1D1B"/>
      <path d="M148.199 42.125H147.354V38.0649H148.199V42.125Z" fill="#1D1D1B"/>
      <path d="M148.65 39.5112V38.7713H149.023V38.0659H149.868V38.7713H150.759V39.5112H149.868V41.0069C149.868 41.2575 150.007 41.3821 150.289 41.3821H150.759V42.126H149.938C149.329 42.1207 149.023 41.8064 149.023 41.1832V39.5112H148.65Z" fill="#1D1D1B"/>
      <path d="M151.978 40.8733C151.978 41.222 152.081 41.3984 152.293 41.3984H152.515H152.725C152.944 41.3984 153.054 41.222 153.054 40.8733V40.5299V40.201C153.054 39.8722 152.944 39.7104 152.725 39.7104H152.515H152.293C152.081 39.7144 151.978 39.8775 151.978 40.201V40.5299V40.8733ZM151.129 40.5299V39.908C151.136 39.2914 151.385 38.9825 151.885 38.9825H152.387C152.607 38.9825 152.834 39.0832 153.054 39.2874V38.0662H153.896V42.125H153.054V41.8068C152.834 42.0163 152.607 42.125 152.387 42.125H151.885C151.382 42.125 151.129 41.8041 151.129 41.165V40.5299Z" fill="#1D1D1B"/>
      <path d="M155.213 41.9453H154.371V40.9972H155.213V41.9453Z" fill="#1D1D1B"/>
    </symbol>

    <symbol id="arrow" width="24" height="24" viewBox="0 0 24 24" >
      <path d="M15.229 3C16.2783 5.46854 17.2316 7.07398 18.401 8.25914C19.5111 9.3842 20.8699 10.1838 22.8341 10.9467C23.4897 11.0302 24 11.6807 24 12.4709C24 13.1509 23.6219 13.7271 23.0987 13.928L23.1064 13.9485C20.9941 14.7433 19.5618 15.5645 18.401 16.7409C17.2316 17.926 16.2783 19.5315 15.229 22L13.6238 21.3122C14.7079 18.7616 15.7654 16.9219 17.1611 15.5074C18.0627 14.5937 19.0812 13.8821 20.2875 13.2665H0V11.514H19.8727C18.845 10.9492 17.9575 10.2997 17.1611 9.49264C15.7654 8.07807 14.7079 6.23842 13.6238 3.68777L15.229 3Z"/>
    </symbol>

    <symbol id="address" width="20" height="20" viewBox="0 0 20 20" fill="none">
      <g clip-path="url(#clip0_211_2153)">
      <path d="M1.07994 2.77761V1.6665H17.9177V2.77761H1.07994ZM1.16549 18.3332V11.6665H-0.201172V10.5554L1.07994 4.99984H17.9177L19.1999 10.5554V11.6665H17.8322V18.3332H16.721V11.6665H11.1655V18.3332H1.16549ZM2.27661 17.2221H10.0544V11.6665H2.27661V17.2221ZM0.921051 10.5554H18.0766L17.0455 6.11095H1.95216L0.921051 10.5554Z" fill="#CFC1B5"/>
      </g>
      <defs>
      <clipPath id="clip0_211_2153">
      <rect width="20" height="20" fill="white"/>
      </clipPath>
      </defs>
    </symbol>

    <symbol id="close" viewBox="0 0 24 24" fill="none" stroke="currentColor" stroke-width="2" stroke-linecap="round" stroke-linejoin="round">
      <path d="M18 6L6 18M6 6l12 12"/>
    </symbol>

    <symbol id="burger" width="36" height="36" viewBox="0 0 36 36">
      <path d="M4.5 27H31.5V24H4.5V27ZM4.5 19.5H31.5V16.5H4.5V19.5ZM4.5 9V12H31.5V9H4.5Z"/>
    </symbol>

    <symbol id="logo-sm" width="36" height="36" viewBox="0 0 36 36" fill="none">
      <path d="M17.9055 35.8135C27.7954 35.8135 35.8123 27.7978 35.8123 17.9054C35.8123 8.01558 27.7954 -7.41496e-05 17.9055 -7.41496e-05C8.01691 -7.41496e-05 0 8.01558 0 17.9054C0 27.7978 8.01691 35.8135 17.9055 35.8135Z" fill="#E30613"/>
      <path d="M16.6866 1.97584V33.2646L13.6152 32.7936V2.44942L16.6866 1.97584Z" fill="white"/>
      <path d="M22.7672 2.77501L22.8275 29.3067C22.8275 29.3067 21.4093 30.0767 17.9272 30.8442L17.8682 27.95L19.2839 26.7705V6.10639L18.1056 5.5185V1.97483L20.8189 2.2135L22.7672 2.77501Z" fill="white"/>
      <path d="M24.0664 3.27572C24.0664 3.27572 25.4532 3.71789 27.0473 4.98537L27.1089 30.4003L24.1543 32.0547L24.0664 3.27572Z" fill="white"/>
      <path d="M8.54231 4.92699V26.8887C6.43947 26.1501 4.054 21.1053 4.37809 17.2375C4.37809 17.2375 2.24134 16.8581 2.19486 17.3267C1.34066 25.8875 9.83366 31.7941 12.3762 32.4385V2.86309L8.54231 4.92699Z" fill="white"/>
      <path d="M28.4939 29.1328C28.4939 29.1328 28.4173 24.9196 28.1396 25.2362C34.0814 18.4604 28.524 9.82792 28.524 9.82792V6.28676C28.524 6.28676 40.0155 17.1351 28.4939 29.1328Z" fill="white"/>
    </symbol>

    <symbol id="cloud2" width="146" height="56" >
      <g opacity=".8">
        <path d="M106.529 23.6064c1.087.2462 2.065.7798 3.075 1.2095 2.1.8918 4.167 1.8299 6.537 1.2347.166-.0413.363.0646.54.0495 1.604-.1382 3.099.3924 4.582.8483 1.185.3642 2.372.2553 3.351-.2148 2.067-.9906 4.146-1.0592 6.243-.4893 1.552.4217 2.827.2643 4.014-.8493.432-.4046.969-.7163 1.5-.9846 1.026-.5175 1.914-1.2468 2.745-1.9973.694-.6264 1.359-.7818 2.127-.4741 1.608.6436 3.152.3177 4.757-.1554-.578-.3046-1.127.0565-1.632-.0605-.575-.1332-1.14-.3833-1.659-.6748-.423-.2371-.835-.0626-1.209-.0394-1.784.109-3.721-.5508-5.27.9341-.059.0575-.172.0615-.26.0888-2.496.7515-5.03.9038-7.6.5033-1.543-.241-3.074-.3167-4.576.2351-.647.2381-1.315.5336-1.996.4237-1.17-.1897-2.356-.1322-3.53-.4822-1.129-.3359-2.283-.6265-3.429-.925-1.591-.4146-2.968-1.0955-3.704-2.6823-.167-.3591-.452-.57-.724-.8221-1.204-1.1188-2.782-1.3407-4.245-1.843-.799-.2744-1.632-.3541-2.446-.2744-1.506.1463-2.882.5639-3.533 2.1991-.2574.6466-.7467 1.1762-1.269 1.6402-1.1564 1.0299-1.9274 1.0874-3.2375.2492-1.0186-.6517-1.8055-1.4042-1.5858-2.8175.1059-.6819-.2077-1.3709-.3275-2.0548-.3665-2.0982-2.0362-2.9466-3.649-3.3874-1.6208-.4428-3.4463-.4388-5.114.3238-.2876.1311-.6251.1715-.9447.2088-1.3501.1554-2.161-.3974-2.5714-1.729-.2187-.7091-.3535-1.54337-.8708-2.02051-1.3482-1.24278-3.7059-1.77742-5.4525-.41157-.7629.59617-1.2113 1.28918-1.3002 2.33728-.1138 1.3426.3186 2.4785.9067 3.5821.5483 1.0279.7511 2.0437.3676 3.226-.8488-.5286-1.517-1.149-2.178-1.7946-1.0726-1.0481-2.3198-1.6816-3.8647-1.845-.9647-.1019-1.8334.2955-2.7212.227-.6871-.0525-1.0885.1472-1.5589.5588-1.1045.9684-2.2389.9634-3.4972.0646-.5971-.4267-.641-.6507-.1917-1.2166.1398-.1755.3196-.3571.5193-.4418 1.5039-.6335 2.0652-1.7431 1.7246-3.34202-.0379-.17855-.019-.37324-.009-.55885.04-.76261-.2656-1.35676-.8538-1.81676-.9087-.71117-1.8354-1.40317-2.858-1.93276-1.0845-.56087-2.204-.96941-3.4093-.24412-.2627.15837-.6232.20679-.9387.20578-.4504-.00202-.8329-.01715-.9747-.69603-.1658-.79187-.4654-1.63418-1.0446-2.23136C51.2299.330516 48.6624-.293901 45.8403.120696c-1.0795.158374-2.1789.467052-2.868 1.484884-.2406.35609-.5562.21487-.8728.14123-1.3711-.31877-2.7422-.2986-4.1243-.04439-2.0202.37122-3.6 1.11467-4.0264 3.48423-.2487 1.38199-1.0406 2.60762-2.5765 2.98993-1.6427.40956-3.3004.69503-5.0031.76262-1.2013.04741-2.3617-.26934-3.5471-.24008-.6421.01614-1.2812-.08373-1.9023-.08171-.8928.00201-1.7187-.4953-2.6833-.10289-2.5395 1.03195-4.4529 2.62778-5.4016 5.29488-.1837.5165-.4823 1.031-.8498 1.4315-.4174.4559-.8389.9169-1.5988.9492-2.04619.0878-3.03281 1.0612-3.3294 3.109-.40045 2.7619 1.97025 5.1547 4.6795 4.6281 1.43-.2774 2.3827.4005 3.3154 1.2892.2826.2693.3336.6184.1648.8887-.3555.5679-.6621 1.2458-1.5169 1.2085-.8109-.0363-1.5378.2431-2.2249.6517-.6471.3843-1.3551.4448-2.09408.5205-1.49095.1543-2.97792-.116-4.48484.232-1.85044.4277-3.27248 1.3255-4.330016 2.884-.5212798.7687-.722985 1.6039-.432386 2.4906 1.120452 3.4237 2.195952 4.4193 5.063992 4.7482.9407.1079 1.71165.5336 2.19697 1.2357.46636.6739 1.08552 1.2448 1.41407 2.0175.33653.7919.75595 1.5041.82985 2.4462.07789.9937.05891 2.0468.44234 3.0112.6731 1.6886 1.5709 3.0625 3.5681 3.4368 1.6747.3137 3.2934.1341 4.9182-.1473.6122-.1059.9707-.0232 1.4011.4832 1.5309 1.8026 3.6419 2.0518 5.746 1.6604.8868-.1654 1.8335-.6426 2.5874-1.4718 1.2363-1.3608 1.5739-2.8678 1.4331-4.5928-.1488-1.8198.5243-3.2663 1.9263-4.3891.9667-.7737 1.459-.6234 1.7745.5468.036.1341.048.2743.084.4095.4394 1.6533.9237 3.2895 1.6966 4.8249.4524.8988 1.0885 1.5423 2.0332 1.9559 1.9323.8474 3.8087.4277 5.6422-.2068.8428-.2915 1.6787-.4418 2.5365-.4902.9147-.0515 1.6227.3077 2.2219 1.1157.8269 1.1156 1.3632 2.3917 2.188 3.5124 1.8285 2.4846 5.4615 2.3999 6.9634-.2612.1588-.2815.3615-.5387.5523-.801 1.1464-1.5767 1.6407-3.2522.8298-5.1587-.3795-.8938-.7709-1.7875-.9357-2.759-.0559-.3268-.1378-.6546.0779-.9442.7909-1.0642 2.9709-1.6765 4.2331-1.153.5073.2109.9997.4923 1.446.8161 1.9224 1.3931 4.0005 1.6645 6.2593 1.0511 1.2853-.348 2.5885-.7041 3.9057-.8402 1.9273-.1988 3.8557-.3572 5.772-.6658 1.2583-.2028 2.5684-.3884 3.4342.9371.3406.5205.8648.5104 1.3602.4782 1.1703-.0747 2.0412.3732 2.7192 1.3345.5243.7435 1.2973 1.3124 2.1471 1.4395 1.2163.1826 2.4825.1816 3.7048-.121 2.0432-.5054 2.8631-2.0972 2.1631-4.1299-.1349-.3903-.3306-.7636-.3086-1.2004.0339-.6748.3974-1.1964.9687-1.0965 1.6766.2926 3.3174-.4509 5.0417.0424 1.347.3853 1.989-.2764 2.623-1.6221.457-.9694.767-1.963.883-3.0041.483-.0857.782.1816 1.036.4197.634.5921 1.427.8423 2.203 1.1187 1.004.3571 3.003-.232 3.686-1.0178.201-.231.256-.4772.264-.7657.013-.4297.128-.81.56-.9956.62.4146.871 1.1076 1.351 1.613 2.106 2.2202 4.644 2.7448 7.294.6436 1.071-.8504 1.782-1.9933 2.726-2.9385.592-.5922 1.232-.8423 2.076-.7415 1.174.1392 2.337.4308 3.533.3178 1.215-.114 2.383-.3359 2.953-1.6231.175-.3944.451-.3409.783-.3682 1.262-.1029 2.501.0706 3.788-.4368 1.987-.7838 2.881-2.8255 4.74-3.691-1.186.3601-2.322.7929-3.421 1.3084-1.031.4832-2.092.7979-3.212.5982-.697-.1241-1.304.0141-1.846.356-.779.4913-1.613.6093-2.494.683-.437.0363-.998-.1251-1.29.4136-.49-.0717-.98-.1443-1.471-.2159-.098.3117.088.3924.33.3702.381-.0333.759-.0989 1.138-.1503-.005.0101-.011.0192-.017.0292.562-.0141 1.123-.0292 1.99-.0514-.809.7283-1.356 1.1358-2.233.922-.516-.1261-1.084-.0121-1.619-.0777-.299-.0363-.685-.1069-.773-.4741-.101-.4196.528-.2441.557-.6002-.434.2189-.806-.0696-1.195-.1624-3.623-.8675-3.256-1.0239-6.14 1.1671-1.758 1.3366-3.763.9785-5.059-.8251-.383-.5337-.722-1.1309-.931-1.6998-.575-1.5585-1.893-1.7371-3.166-2.0084-.833-.1776-1.433.2048-1.716 1.0329-.207.6073-.525 1.1813-.53 1.8683-.005.6718-.218 1.4001-.898 1.6008-.637.1877-1.04-.4216-1.428-.8806-1.387-1.6483-3.075-1.5646-4.638-.9079-1.71.7183-1.8787 2.0327-1.3255 3.1564.0829.1675.1368.3238.1768.5084.2906 1.3588-.2886 2.0296-1.6178 1.7875-.5672-.1039-1.0845-.5144-1.2603-1.0017-.2856-.7939-.8508-1.4142-1.1234-2.2222-.1967-.5841-.6141-1.0401-1.3921-1.3356-1.2792-.4842-2.3657-.2351-3.4602.2249-.9028.3793-1.7177.1433-2.5485-.0746-.6421-.1685-1.1494-.9805-1.1065-1.5969.0799-1.1227.757-2.1678 1.481-2.2838.0449-.007.0929-.0091.1388-.003 1.6338.2229 3.3024.3036 4.8882.7142 1.3841.3581 2.5655.3379 3.5711-.7072.5073-.5265 1.1604-.5971 1.6388-.3722 1.0206.4792 2.0956.46 3.1476.6315 1.734.2824 2.605-.348 2.965-2.075.066-.3168.089-.6436.114-.9674.091-1.1197.506-1.4032 1.633-1.148m32.26-1.4586c-.879-.0615-1.171.9401-1.926 1.1046.936-1.6382.95-1.6503 1.926-1.1046m-5.9 8.6329c.654-.4368 1.412-.1544 2.116-.2845.524-.0968 1.074-.1725 1.617-.2159.178-.1543.478-.0847.603-.3379.002.004.004.0091.007.0131.001-.006.003-.0121.003-.0181.004.0131.004.0242.007.0373.042.0837.084.1664.127.2502-.048.005-.081.003-.109-.001-.038.2451-.262.3419-.555.3833-.859.6325-1.768 1.0339-2.837.5679-.321-.1392-.621.0303-.93-.001-.158.0797-.402.1977-.46.0071-.08-.2603.161-.3783.411-.4005m-32.9234 1.6079c.0564-.6779.4314-.9018.7014-1.1963-.202.3439-.405.6899-.7014 1.1963m21.7154-6.5004c-.01.0131-.023.0273-.039.0414-.045.0373-.144.0091-.218.0111.062-.0847.123-.1695.185-.2552-.004-.0202-.009-.0394-.013-.0626.01.0131.02.0253.03.0384.001-.001.001-.002.002-.0031.102.0364.192.0172.266-.0645.137.0817.274.1644.411.2461-.247.1493-.489.2784-.624.0484m.898.0999c-.168.0504-.185-.0878-.265-.1483.088-.1644.206-.1987.358-.1019-.004.0878.085.1978-.093.2502m.812.0161c-.251-.0464-.617.1907-.708-.2602.003.002.006.002.009.004.188-.2037.394-.1251.599-.0373.163-.0978.324-.1311.376.1009.01.0413-.179.1281-.276.1926m.796-.6022c.065-.004.13-.008.195-.0131-.033.0726-.063.1493-.091.227-.098-.0414-.13-.114-.104-.2139m.594-.1382c.002-.007.004-.0121.006-.0202l.045.0696c-.017-.0161-.034-.0322-.051-.0494m8.554.0424c.019.0575.037.116.056.1735-.19-.0313-.106-.1049-.056-.1735m-6.267-2.0427c-.191.3056-.436.2693-.7.1351.151-.3964.436-.2179.7-.1351m-.732.1392c-.051.0575-.102.115-.151.1745-.067-.0394-.133-.0777-.2-.117.082-.227.195-.2714.351-.0575m-23.045-6.4954c-1.185.6799-2.012 1.7714-3.007 2.6702.397-1.5837 1.525-2.3302 3.007-2.6702m-7.3858 4.3397c-.6431-.2109-1.452-.0908-1.8615-1.144.7959.3067 1.3122.7516 1.8615 1.144m-2.4437-3.113c-.0109.0312-.0878.0736-.1028.0635-.0959-.0635-.0909-.1341-.002-.1987.1029-.0232.1448.0212.1048.1352m-.1128-.1655c-.6391-.6879-.692-1.4374-.2157-2.2404.0659.7465.714 1.4445.2157 2.2404m-.0869 1.4062c.0929.5922-.1827.9311-.5372 1.1651-.3855.2532-.6581-.1634-.8868-.4398-.1947-.236-.3505-.5064-.5203-.7636.1149-.8474.2856-1.6786.8099-2.5481.2626 1.0047.9846 1.6322 1.1344 2.5864M75.6981 9.82791c-.007-.04338-.028-.09079-.018-.13114.03-.13013.0909-.23201.2497-.21486.0639.00706.1278.01412.1927.02118-.0519.02522-.1049.04842-.1498.08171-.0979.07364-.1837.1614-.2746.24311m.5033-.37425c.0809-.22696.2067-.41964.4234-.54069-.014.27136-.2547.3803-.4234.54069m.4603-.56893c.3256-.2996.6991-.21991 1.0746-.10491-.3556.05952-.6751.6002-1.0746.10491M65.8746 15.1814c.1818-.227.4464-.2795.7051-.344 1.5788-.7142 3.1366-.5448 4.5866.2915 1.3991.807 2.4517 2.0427 3.4792 3.3037-.9926-.7738-2.149-1.3094-3.0737-2.1356-1.2453-1.1116-2.6044-1.4738-4.1962-1.1388-.2207.0464-.4564.0211-.6851.0302-.1997.2391-.4524.346-.7609.3178-.1538-.0091-.4005.1261-.3795-.1826.01-.1362.1817-.1695.3245-.1422m-.8817.5195c.0539-.1261.1408-.2028.2816-.1604.0239.007.0509.0867.0399.119-.0499.1392-.1628.1715-.2976.1473-.2077.4559-.6281.6627-1.0235.919-.032-.7415.0868-.8605.9996-1.0249M44.2875 1.63483c.4344-.11802.9048-.2774 1.3322-.21991 1.7635.23807 3.557.12408 5.3086.49127 1.1854.24815 1.8645 1.03195 1.8794 2.33929.026 2.19101 1.1784 2.59955 2.6484 2.51179 1.7196-.10289 3.4162-.1271 4.8972.98152.3275.24512.741.40753.8528.84533-.006-1.23874-1.1174-1.63014-1.9223-2.00742-.8079-.37828-1.8245-.5306-2.7922-.33288-.003-.00202-.006-.00303-.0089-.00505-.005-.01311-.0101-.02522-.015-.03833.002.01412.006.02623.012.03733-.1239-.0797-.2348-.0797-.3286.02219.016-.09684-.027-.2189.1548-.24715.0639-.01008.1019-.00302.1248.01312.003-.05448.028-.10189.0959-.12811.705-.27338 1.4679-.35912 2.137-.03935.9547.45697 1.8624 1.02994 2.7482 1.61804 1.0805.71722 1.2503 1.89444 1.2922 3.06459.026.7162-.2626.9825-1.1464 1.3568-.0479-.5538.5842-.9836.2487-1.4849-.029.6688-.6511.9845-1.0676 1.4274-.5153.5477-.9946 1.0894-1.1973 1.8399-.3036 1.1278.011 1.7775 1.1135 2.1436.4354.1443.8997.2018 1.3511.2956.1788.0373.3735.0343.5372.1049.3775.1654.5693.5185.5583.8968-.013.4428-.3795.6526-.7719.6264-.748-.0504-1.464.1513-2.198.2018-.4154.0282-.8398.0857-1.1724.3672-1.2592 1.0632-2.8221 1.2579-4.345 1.5363-1.0136.1856-1.9173-.0565-2.5545-.9644-.5742-.8171-.3784-1.8571.4704-2.3847.5093-.3167 1.0006-.7202 1.5578-.8867.777-.231 1.0406-.7222 1.2713-1.4445.4364-1.3679.2456-2.6288-.2976-3.8978-.1948-.45395-.4933-.60425-.9697-.59719-.6062.00908-1.1844.08171-1.7656.27236-1.5328.50233-3.1166-.20377-3.8426-1.66444-.0829-.16644-.1658-.35105-.2986-.46907-.9367-.83121-1.2912-1.844-1.1854-3.10998.0629-.75152-.3954-1.29927-1.0475-1.1873-.8049.1382-1.467-.31069-2.2149-.25824-.043-.00605-.0929 0-.1289-.01917-.1528-.08271-.3964-.21789-.3285-.34499.0789-.14627.2945.01009.4383.0918-.3385-.67788-.1627-1.15502.5693-1.35375m11.8007 4.62815.0359.02421c-.005.00707-.012.0111-.017.01917zm4.6605 6.48022c.1139-.4539.2178-.691.5004-.8141.1028.3914-.1918.5387-.5004.8141m-10.7691-1.7915c-.4903-.1241-.9287-.3339-1.2782-.9402.5712.112 1.0465.1856 1.432.4913.3195.2542-.001.3329-.1538.4489m-9.6297-8.54416.003-.00606c.002.00303.002.00505.003.00807-.001-.00101-.003-.00201-.006-.00201m.0819-.16746c-.0309.00404-.0539.01211-.0709.0232-.044-.07868-.0259-.08776.0709-.0232m-.0899.16443c-.2137-.06053-.4274-.12004-.6411-.18056.3066-.34399.4743-.08273.6411.18056m-.9526-.27236c.1268-.0696.2137-.02119.2706.09482-.0889.09281-.1878.13416-.2956.02925-.018-.01614 0-.10995.025-.12407m-.4614-.02522c-.004.06759.0019.14022-.018.20276-.007.02219-.0779.0232-.1199.03329.001-.0686.0031-.1372.0041-.19772.0509-.01412.0928-.02623.1338-.03833m-2.0172.59213c.1757-.07263.4064-.35608.5212-.0696.0959.23706-.1887.31675-.4224.28447-1.1673 1.1409-1.8264 2.6399-2.7801 3.93413.71-1.50203.4743-3.61638 2.6813-4.149M81.6489 43.2256c1.3381-.9199 1.9503.4883 2.863.8645-1.1454.3723-2.0212-.1079-2.863-.8645m7.4487 3.7899c.005-.0605.002-.123.0209-.1785.006-.0182.071-.0152.1089-.0212-.005.0605-.002.1231-.02.1785-.007.0172-.0719.0152-.1098.0212m4.4898-3.7606c.022-.0091.0968.0414.1008.0706.019.1392-.0509.2028-.1717.2098-.047-.1109-.0729-.2219.0709-.2804m-.0699.3077c.717.4236.9636 1.3134.5103 2.0679-.3406.5659-.8309.9906-1.467 1.2115-.9607.3339-1.9363.4832-2.9739.2734.0649-.4186.3675-.3904.6082-.4408.1787-.0374.3715-.0212.5432-.0747 1.5089-.4701 2.8012-1.1459 2.7792-3.0373m.9117-3.1362c.9517-.0343 1.9114-.7617 2.9589.0282-1.0635.6295-2.0062-.1564-2.9589-.0282m-1.0805 1.7673c-.6191-1.0965-.3935-1.5303 1.0885-1.6483-.5662.5578-.8149 1.0965-1.0885 1.6483m.027.2754c.0229.006.0339.0555.0509.0857-.017.0242-.0289.0626-.0519.0696-.0909.0293-.1368-.0232-.1189-.1412.003-.0121.0829-.0242.1199-.0141m17.5353-8.3293c.029-.0091.143.1271.154.2048.068.4923-.406.3692-.621.5437-.061-.3884.114-.6335.467-.7485m-.896 2.5945c-.232-.0877-.036-.3762.082-.5578-.17-.3047.043-.5004.203-.7344.23.233-.008.4691.029.691 0 .0454.008.0928-.001.1362-.043.2078-.043.5669-.313.465m4.621.7344c.453-.0111.641.1614.879.4035-.361 0-.576-.1231-.879-.4035m1.36.5256c.339-.3924.754-.0132 1.11-.0202-.332.1816-.679.2935-1.11.0202m1.708.0191c-.1-.0454-.174-.1493-.259-.23l.001-.001c.109.0363.229.0545.322.115.065.0424.008.1493-.064.116m5.086-4.7028c-.625.5266-.838 1.4244-1.603 1.8289.361-.7878.488-1.7552 1.531-2.0024.149-.0262.34-.2663.425-.0625.068.1644-.131.3046-.353.236m-1.983-1.7471c-.313.8201-.65 1.4263-1.62 1.4758.519-.8494.582-.9069 1.62-1.4758m-26.3908-3.7889c-.0599.0958-.1737.1402-.2306.0565-.1189-.1775.0539-.2219.1707-.2804.1088-.3349.8908-.116.6172-.7657.5173-.0383.9017-.3319 1.1763-.8947-.0878.4095.4155.231.5143.5134-.5861.7061-1.0885 1.5676-2.2479 1.3709m7.4058-.7838c-.333-.0444-.642-.4408-1.002-.0625-.002-.001-.005-.0031-.007-.0041-.002.0041-.002.0081-.004.0121.001-.005.003-.008.004-.0121-.034-.0212-.069-.0413-.101-.0635-.131-.0898-.262-.1806-.393-.2714.075-.0323.155-.0998.225-.0898.216.0283.339.1322.298.3309.163-.4025.678-.2703.933-.5377 0-.002 0-.004-.001-.006.274.0565.517.0676.498-.3218.196.2724.39.0192.503-.0878.476-.4529.83-1.0148.967-1.6533.092-.4257.247-.7777.633-1.2387-.153.8957-.288 1.6311-.404 2.3695-.229 1.4466-.72 1.8269-2.149 1.6362m3.263-4.0743c.154-.4641.332-.5922.57-.6497-1.056-.0716-1.866.4237-2.12 1.4788-.212.8767-.63 1.5707-1.27 2.1588-.257-.0696-.491-.1039-.542.1402-1.7385-.234-3.4811-.4227-5.2396-.3773-.1069.0031-.2117.115-.3176.1816-.8977-.342-.9487.4358-1.2103.9361-.7899-.0555-1.434.5962-2.2429.4661-1.0855-.1746-2.188-.2704-3.2585-.5085-1.5878-.354-2.8241.2815-3.2106 1.843-.1537.6194-.2097 1.2973-.1428 1.9298.0959.8917.6581 1.5646 1.488 1.85 1.1344.3914 2.3178.6739 3.4892.107 1.2602-.6103 2.2658-.0626 3.1296.7666.4843.465.9507 1.0098 1.2043 1.6755.4215 1.1117 1.3612 1.6201 2.3788 1.95 1.425.463 2.5544-.3269 2.7174-1.84.064-.5982.007-1.2095.068-1.8087.135-1.3396 1.212-2.3938 2.434-2.4079.615-.007 1.17.1029 1.564.687.256.3783.619.6839.95 1.0067.785.7656 1.693.695 2.329-.1806.42-.579.614-1.2528.731-1.9468.387-2.306 1.807-2.0619 3.357-1.144.363.2149.585.6365.73 1.1278.651 2.2122 1.82 3.112 4.089 3.2169.831.0384 1.668 0 2.47.2552.623.1977 1.035-.2814 1.549-.4257.165-.2794.363-.5437.487-.8413.518-1.2488.904-1.5555 2.044-1.1429.874.3158 1.816.571 2.651 1.27-1.787-.2148-3.592-.9905-4.827.9644-.749.8776-1.179 1.9842-2.098 2.7559-.582.4893-1.15.6628-1.88.6597-1.533-.006-2.848-.5538-4.103-1.39-.377-.2522-.495-.6607-.805-.9301-.224-.0171-.239-.1614-.202-.3369-.089-.1069-.189-.2058-.264-.3218-.754-1.1591-1.039-1.1399-1.82-.0313-.408.578-.309 1.2549-.543 1.8612-.408 1.0521-.444.8161-1.483 1.0945-1.539.4115-2.503-.461-3.624-1.0965-.967-.5478-1.262-.4227-1.259.6657.003 1.0239-.266 1.9298-.808 2.7721-.718 1.1157-1.282 1.389-2.5601 1.0481-2.6203-.6991-5.1419-1.6786-7.3958-3.2149-.7589-.5175-1.404-1.1893-2.3497-1.3679-.2267-.0434-.4564-.1806-.6701-.1553-1.7615.2098-3.4781-.2421-5.2177-.3299-.8599-.0434-1.6188.5064-1.8984 1.3215-.2716.7908.2756 1.7592 1.1174 1.9358.2676.0565.5702.1019.8259.0343 1.3541-.3612 2.4955.3318 3.7089.697.6521.1967.7958.5992.5572 1.157-.1988.4651-.4914.8888-.4085 1.4294.5443-.4075.756-1.046.9238-1.6573.1468-.5357-.6171-1.2953-1.3861-1.5303-1.0855-.3319-2.1241-.8201-3.3324-.5558-.7949.1735-1.1234-.457-1.3222-1.1268-.2276-.0454-.2007-.1332-.0409-.2441.4394-.8605 1.1654-1.0027 1.9912-.7404 1.1684.3702 2.3598.3006 3.5511.2784 1.1724-.0212 2.2689.1261 3.1816 1.0037.8449.812 2.0652 1.0067 2.9769 1.726l.021.01c.1198.0162.2946-.008.3575.0656.1188.1382.4614.1049.3355.4116-.007.0171-.3095-.0898-.4753-.1382-.1199.1362-.2507.2209-.4264.0948-.1828.0212-.3675.0716-.5473.0595-1.42-.0948-1.7446 1.1631-1.6837 2.4119.021.4298.2118.8857.3856 1.3215.2806.7021-.059 1.6342-.7081 1.9338-1.1794.5457-2.4416.7273-3.7398.575-.0859-.0101-.1937-.0454-.2437-.107-1.0006-1.2347-2.5435-1.6261-3.7808-2.4906-.0868.0031-.1787.0263-.2596.0041-.2457-.0666-.6052-.1251-.5712-.4136.0289-.2451.3775-.3158.6431-.346.1728-.3622.8748-.2038.7829-.8948-1.8644.8837-3.8756.9493-5.8489 1.156-3.6579.3834-7.294.8756-10.889 1.6756-1.42.3157-2.7721.1432-4.0743-.7061-1.3781-.8988-2.8681-1.6383-4.355-2.3464-.6541-.3117-.9337-.7424-.8579-1.387.0919-.7848-.3615-1.2579-.7379-1.8501-1.0786-1.6997-2.92-2.6348-4.0345-4.3023-.7299-1.0935-1.9772-1.4486-3.1915-1.7522-.751-.1876-1.5069-.3531-2.2599-.5286-.2217.0827-.3286.2421-.3216.4802 1.7686.1261 3.4063.6506 4.7135 1.8863 1.2084 1.143 2.3258 2.3857 3.4662 3.6003.8219.8756 1.6438 1.7441 1.5919 3.1069-.018.459.3115.8635.6111 1.2247.1568.1886.2846.4105.0939.6113-.2657.2774-.6431.3782-1.0116.4024-.2697.0182-.3565-.2168-.4105-.465-.6511-2.9607-2.5005-5.0115-4.9262-6.6366-1.0175-.6819-2.173-1.0349-3.2984-1.4284-1.476-.5154-2.9829-.9996-4.5168-1.2669-1.446-.2522-2.9928-.2421-4.298.5548-1.9523 1.1933-2.1271 3.0676-.9807 4.8268 1.0546 1.6181 2.7203 1.9419 4.4549 1.8783.5292-.0191 1.0835-.0383 1.6227-.0837 1.3292-.114 2.5585.1886 3.4982 1.3638-.2127-1.276-1.2942-2.0447-2.7881-2.0276-.9677.0111-1.9374.1261-2.9011.0808-.8638-.0414-1.7316-.1393-2.4945-.683-1.0116-.7202-1.5229-1.9216-1.2513-3.1533.2237-1.0148 1.0465-1.6534 2.2928-1.8945 1.6428-.3177 3.1607.221 4.7195.567 1.7566.3903 3.3644 1.1863 5.0391 1.7925.8278.2996 1.5208.9139 2.126 1.5424.6331.6577 1.0915 1.4839 1.6707 2.2001 1.0466 1.2922 1.0176 2.8457 1.0526 4.3669.028 1.1933.2995 2.2838.8418 3.3419.8808 1.719.8079 3.3864-.5422 4.8461-.3535.3823-.3955.8806-.76 1.272-1.439 1.5444-3.8636 1.8834-5.2577-.3974-.6501-1.0653-1.2962-2.1234-2.0951-3.0878-1.3302-1.6059-2.5256-2.0014-4.5008-1.3346-1.0526.3551-2.1141.6739-3.2036.8625-2.7831.4842-4.1582-.6557-5.029-2.8084-.5423-1.3406-.9088-2.7064-1.1854-4.1328-.3905-2.0115-1.449-2.2697-2.8471-1.5111-1.3491.7333-2.2299 1.8006-2.863 3.2038-.4434.9835-.776 1.9378-.8009 3.0222-.019.8312-.6072 1.3235-1.2513 1.727-.3096.1936-.6461.3439-.9706.5144-.1169-.0151-.2347-.0282-.3515-.0383-.009-.0131-.0181-.0262-.03-.0393 0 0-.006.0413-.006.0353-.2337.1835-.723.0464-.715.5447-.003-.001-.005-.002-.008-.002.002.006.005.0101.007.0171 0 .004 0-.003.001-.0091 0-.004 0-.007.001-.005.2117-.0545.4294-.0999.6331-.1806.0669-.0262.1138-.0605.1438-.1009.0879.0686.2517.0051.3945-.0221 1.6207.0464 2.4475-.9019 2.878-2.3454-.001-.2471.1248-.4136.3295-.5306.1328.2451.1298.5034.0679.7667.1728 1.7501-.9307 2.8467-2.1959 3.5467-2.0951 1.1611-4.2551.8625-6.2574-.462-.4534-.2996-.6271-.5588-.1198-1.0491.7669-.7404 1.0096-1.7239 1.0265-2.7932.024-1.4516-.2436-2.8427-.6311-4.2317-.5502-1.9741-1.1844-3.921-2.5725-5.4574-1.5728-1.7401-3.1386-3.461-5.1728-4.7643-1.1294-.7243-2.3597-.7717-3.49316-1.2751-.51529-.2289-1.38806.2643-2.05813.5306-.3685.1473-.26468 1.0471.05388 1.6322.56821 1.0451 1.57682 1.5162 2.53551 2.0478.4793.2663 1.0086.4428 1.5159.6557 1.2982.5467 2.2619 1.392 2.5505 2.8608.0899.4569.2287.9048.3175 1.3618.2437 1.2539.8788 2.2202 1.9973 2.8437.2117-.1806.0719-.3965.0599-.5992-.7589-.3894-1.1594-1.035-1.3072-1.8632-.0898-.5034-.1677-1.0098-.2906-1.5051-.3944-1.5948-1.1594-2.8315-2.7422-3.582-1.2763-.6053-2.58243-1.2479-3.618-2.2818-.19673-.1967-.46134-.3773-.37046-.6941.12083-.4236.51929-.3157.81887-.3338 1.00959-.0626 1.88939.3823 2.74919.8221 1.3571.694 2.6204 1.6483 3.63 2.7075 2.4426 2.5632 4.4499 5.4614 4.8114 9.2038.0559.574.1737 1.155.2226 1.7401.1168 1.3921-.3704 2.4604-1.6037 2.8689-1.9334.6406-3.9007.919-5.873-.0262-1.0765-.5165-1.6936-1.3477-2.0441-2.4362-.4145-1.2861-.5103-2.6368-.755-3.9573-.38145-2.0589-1.78251-3.4076-3.19357-4.7331-.58219-.5467-1.37613-.6859-2.18302-.7696-2.58043-.2684-4.368955-3.223-3.45122-5.647.38047-1.0037 1.21531-1.612 2.06514-2.1244.8658-.5226 1.87546-.7949 2.88706-.7929 2.32379.002 4.54571-.5165 6.75561-1.1591 1.442-.4196 1.8005-.6284 2.7822-1.8551.4863.7415.9777 1.4587 1.437 2.1981 1.3272 2.1355 3.1367 3.5669 5.6003 4.1762.9297.23 1.7855.7515 2.6983 1.0683 2.0541.7122 4.2371.5114 5.764-.8221 1.457-1.2721 2.5235-3.1383 2.9669-5.187.014-.0646-.0739-.1514-.1178-.228-.3506.1977-.2997.6224-.4824.918-.2197.355-.3125.8534-.6151 1.0803-.8478.6376-1.3931 1.4133-1.5829 2.4644-.0259.1422-.2316.2865-.3854.3662-1.1834.6072-2.4017 1.0269-3.7498.7061-.051-.4025.1897-.4701.4044-.5225 1.7027-.4197 2.7732-1.6221 3.4792-3.113.3515-.7425.5332-1.6746.3066-2.5179-.3416-1.273-.3116-2.4865.2297-3.6759.5612-1.2317.6231-2.4351-.028-3.6607-.1058-.1998-.1738-.4005-.3455-.57-1.2453-1.2246-2.2239-2.7196-3.605-3.7989-1.7796-1.3901-3.4003-3.0777-5.802-3.4106-.2277-.0313-.4414-.1342-.6581-.0111-.8858.5034-1.8954.6769-2.8092 1.152-.8708.4529-1.1483 1.272-1.6766 1.9317-.2167.2704-.055.6769.2167.8736 1.9053 1.382 2.7152 3.6043 4.1003 5.3827.8958 1.15 2.0941 1.7926 3.588 1.8006.3885.0021.6682-.1372.9208-.355-.0929-.2432-.2347-.2643-.3685-.2553-2.1051.1433-3.3813-.9976-4.4019-2.7196-.8109-1.3678-1.5249-2.8184-2.7312-3.93-.6142-.566-.5713-.7425.1557-1.1954.3316-.2068.4284-.572.77-.7667 1.5119-.8604 3.0128-.9401 4.5906-.1785 1.9144.924 3.3145 2.4765 4.8334 3.8897.8838.8222 1.6896 1.7058 2.3377 2.7337.4155.6577.4843 1.2852.1937 2.0518-.5392 1.4234-.8977 2.8104-.5372 4.4587.4973 2.2748-1.2043 4.5303-3.1956 4.9369-2.3038.47-4.4948.3671-6.515-.7768-1.398-.7919-2.3707-2.1385-3.2714-3.4822-.4904-.7303-.9328-1.494-1.4331-2.2172-1.1654-1.6846-2.8381-2.2344-4.7764-2.0145-1.98624.226-3.66793-1.1026-3.60901-3.1463.06191-2.1375.16077-2.6924 2.38771-3.224 1.6297-.3893 2.6144-1.3053 3.3104-2.8225 1.0585-2.309 2.7942-3.9512 5.2867-4.65938.4993-.14122 1.0056-.16745 1.492.00807 2.0052.72021 4.0833.53161 6.1435.49933 1.6018-.02522 3.2205.15232 4.7704-.52455 1.8524-.80902 3.5191-1.78145 4.4578-3.71926.3186-.65771.7749-1.28717 1.2992-1.79155.4774-.45999 1.0396-.84533 1.8086-.88467 1.0535-.05346 2.119-.0807 3.1596-.33289.2746-.06657.706-.22999.7969.24816.0898.47814.9476.79994.2945 1.43444-.0938.09079-.1607.23908-.1847.37021-.1118.61635-.3116 1.18226-.9836 1.34971-.7959.19771-1.5659.46907-2.4167.02118-1.5109-.79489-2.8201.09684-2.867 1.81273-.053 1.94285.722 3.42467 2.3377 4.41027.4884.2976.5493.4539.2897.9371-.5553 1.034-.4874 1.2458.5292 1.8057.9137.5034 1.8165 1.0652 2.8571 1.2599 2.4246.4529 3.3883-1.265 2.8101-3.3874-.2547-.9351-1.0895-1.4576-1.8625-1.9438-.4204-.2643-.709.0645-.8058.4569-.0929.3783.0419.7314.3425 1.0088.2726.2512.5403.5094.7849.7878.1958.2229.2796.4903.0429.7475-.1807.1967-.4123.1957-.634.0928-.4854-.2239-.9637-.462-1.5509-.7455.9586 1.5263 2.0591 1.6201 2.869.3581-.1119-.1129-.1198-.23-.012-.351-.0898-.112-.1788-.225-.2686-.3369-.3136-.3238-.6371-.6386-.9347-.9775-.1278-.1453-.1318-.3652.017-.4963.1977-.1735.4743-.1291.5791.0767.2177.4287.6781.7626.5663 1.3345.0859.115.1717.23.2576.345.1378.1695.3006.3329.1658.5811.006.1351.0389.2754.016.4055-.3006 1.6553-1.0126 2.1163-2.6264 1.6604-.7949-.225-1.5808-.4933-2.3547-.7848-.7839-.2966-1.0885-1.0189-.6412-1.7129.4434-.69.2287-1.0834-.3355-1.504-1.1854-.8837-1.8105-2.07301-1.8285-3.57807-.0169-1.37997.9068-2.22228 2.1121-1.64729 1.3072.62341 2.2898.17653 3.3394-.43578.4174-.24311.6771-.59314.8289-1.06524.3225-.99765.5272-1.10761 1.5608-.97042.2736.03632.5483.0686.8179.12307.4284.08675.6421.3339.5292.79591-.2207.90384.1458 1.5454.7041 2.26363.5382.69302.9786 1.5333 1.1824 2.44723.2077.93616.7479 1.43046 1.5658 1.47686.1208.007.2426-.0122.2846-.106.0709.0949.1987.0989.3066.0384.8288-.46 1.7675-.4822 2.6553-.6709 1.2193-.2592 1.5758.0475 1.8035 1.2781.3595 1.9378.1458 2.3625-1.6268 3.2997-.3674.1936-.716.4246-1.0695.6435-1.7635 1.0905-1.7446 3.5569.0459 4.6383 1.2383.7485 2.5445.5346 3.8218.1503.3515-.1059.673-.2835 1.0695-.23.2986.3853-.032.7909.01 1.1873.0629.5881-.0529 1.2286.5432 1.6483.9837.691.9078 1.7391.8279 2.7509-.036.4559-.1917.9119-.3525 1.3456-1.0116 2.7247-.0709 4.027 2.5275 5.1164 1.9283.808 3.9665 1.1934 6.0027 1.6019 1.3601.2734 2.6863.7172 3.5321 1.9207.4084.581.9337 1.0037 1.4071 1.499 1.2782 1.3346 2.6753.7132 4.1952-.3319 1.1634-.7999 1.0915-2.1658 1.3791-3.344.3445-1.4113-.039-2.6288-1.1325-3.6224-.3725-.338-.672-.7697-.9586-1.1914-.8039-1.1863-1.9853-1.9459-3.2196-2.4664-1.3741-.579-2.4686-1.4405-3.4023-2.5259-.8848-1.0289-2.0282-1.6099-3.2125-2.0972-1.0826-.4458-2.4856 1.0743-2.1511 2.301.1918.7051.4334 1.4294 1.2702 1.6987.3456.111.6522.345.9767.5226.0599-.1413.1208-.2825.1807-.4237-.7309-.3642-1.3061-.8696-1.5568-1.6887-.1478-.4842-.1478-.9139.3036-1.2458.4793-.352.9137-.2522 1.3461.0979.9248.7505 1.8125 1.5424 2.7023 2.3352.9926.8847 2.0681 1.6917 3.3494 2.2475 1.2203.5296 2.184 1.5646 2.9479 2.7146.1029.1543.1508.4075.2876.467.8868.3864 1.1804 1.0895 1.1714 2.0064-.011 1.2428-.2297 2.417-1.0795 3.3733-.6761.7616-1.7027.7838-2.5914.2986-.78-.4267-1.0786-1.2236-1.6558-1.7815-.9097-.8796-2.0502-1.4062-3.2894-1.6503-1.49-.2945-3.0008-.4872-4.4828-.8181-1.3002-.2895-2.5015-.8796-3.576-1.6755-.6821-.5044-.9418-1.2226-.6931-2.0891.2656-.9271.4773-1.8693.695-2.8074.2067-.8948-.012-1.5282-.4713-2.19-.0779-.113-.2057-.1896-.2896-.2986-1.5459-2.0104.1348-3.9563 1.6827-4.269.4943-.0999 1.0046-.111 1.5039-.1856.723-.107 1.4869-.109 2.0022-.7818.2187-.2855.5902-.234.8928-.3289.3125-.0978.665-.1563.7769-.5104.2506-.7949.7869-1.0703 1.5758-1.0319.2647.0131.5373-.1231.8029-.1998 1.3462-.3873 2.5225-.0817 3.5771.8393.8348.7293 1.7086 1.4113 2.5514 2.1305.3855.3288.7391.5276 1.1994.116.1638-.1473.4025-.224.6192-.2946.9516-.3107 1.3571-.8614 1.1403-1.8036-.2596-1.1238-.5961-2.2243-1.0754-3.2895-.9687-2.1557.691-4.32759 3.0348-4.04514 1.3761.16544 1.9273.86654 1.7745 2.26064-.015.1382-.0329.2784-.0679.4126-.2916 1.1126.1688 1.8793 1.0875 2.4442.7589.467 1.5579.7575 2.4646.6052 1.1914-.0091 2.3807.0262 3.572.12-1.1653-.582-2.3587-.694-3.587-.3238-.7499-.0423-1.3741-.4307-2.0202-.7565-.8119-.4096-1.2792-1.0108-1.0406-1.9863.2447-.2612.3336-.234.6392.1968 1.6816 1.1943 3.5041 1.1318 5.3945.6637 1.0316-.2552 2.0672-.2976 3.0778.1947 1.3581.6627 1.8734 1.7048 1.4729 3.1473-.2077.7495-.4683 1.4849-.669 2.2374-.063.2361-.1249.5377.1617.6063-.2217.118-.0369.4378-.1278.6214.028.1129.0559.2259.0829.3389-.1088-.0171-.2187-.0343-.3276-.0514-1.2722-.6658-2.5904-1.1984-4.0204-1.4032-1.8894-.2704-2.6434.1362-3.5012 1.8924-.3655.7485-.735 1.495-1.0745 2.2556-.2117.4751-.5143.7616-1.0556.7212-1.3631-.1009-2.4895-.5921-3.2105-1.8551-.3984-.698-.4314-1.2962.1668-1.8914.4364-.4337.8318-.8857.3704-1.5787-.1378-.2078-.1188-.5336.1588-.7454.4624-.3531.6511-1.0461 1.5239-1.0169-.8528-.462-1.4949-.3006-1.9752.3521-.3186.4328-.5313 1.0017-.3526 1.4385.2856.696-.1427 1.039-.4383 1.4738-.6961 1.0269-.724 1.4082.1168 2.3342.9807 1.0804 2.1051 1.9449 3.664 1.9852.8708.0222 1.5168-.2421 1.8144-1.1439.3345-1.0138 1.0646-1.7885 1.6248-2.6671.3106-.4862.697-.6386 1.2653-.6577 1.6896-.0575 3.2425.4378 4.7154 1.1711 1.2154.6053 2.4536 1.0663 3.8078 1.0986 1.1783.0282 2.3008.4146 3.5461.1815 1.1214-.2098 1.9463-.6516 2.6115-1.4929.72-.9099 1.644-1.5999 2.453-2.4109.984-.9856 2.179-.9553 3.322-.4439 1.833.8191 3.733 1.5676 5.006 3.2895.208.2815.573.4721.901.6305 1.688.8131 3.338 1.7331 5.275 1.8481 1.054.0625 2.1.2421 3.153.3197.909.0666 1.812.1816 2.713-.2169.495-.2188 1.091-.117 1.619.108.215-.684.341-.7344 1.01-.3591-.059.0998-.118.1987-.177.2986.155-.0212.385.1644.449-.106.211.4086.697.1433.991.3491 2.454-.4772 4.908-.4832 7.408-.0777-.211.7031-1.019.7011-1.282 1.2579-.33-.3621-.689-.0847-1.038-.0242-.172.0202-.475-.2179-.478.0999-.002.2189.308.1957.51.0938.078.0484.157.0948.232.1473.153.1079.128.1825-.037.2552-.385.1684-.729-.0676-1.062-.1544-1.548-.4075-3.109-.69-4.708-.7394-.534.002-1.066-.004-1.598.0101-.406.0101-.892-.114-1.004.4882-.874-.2673-1.516-.2148-2.234.1877-.112-.2976-.368-.1806-.562-.1614-1.004.0958-1.992.0918-2.975-.1957-.703-.2058-1.414-.1665-2.139-.0142-1.341.2815-2.612.0656-3.763-.7242-.247-.1302-.495-.2603-.743-.3894-.816-.0535-1.403-.6012-2.036-1.0128-1.039-.6759-2.128-1.155-3.374-1.2297-.173-.0101-.186.0807-.188.1877-.287-.1867-.522-.2704-.455.2663.164-.0535.368-.0273.47-.2099 1.809.4136 3.388 1.3215 5.167 2.5502-1.159-.4752-2.027-.8534-2.911-1.1873-1.041-.4035-2.018-1.1339-3.312-.5316m-78.6958 9.9614c.1268-.0434.2517-.112.3815-.1261.2167-.0232.4993-.0454.4953.2693-.005.4045-.3186.3379-.5802.2855-.0829-.0172-.1568-.0827-.2347-.1261-.1977.113-.4733.1957-.5202-.0746-.059-.338.2756-.1978.4583-.228"/>
          <path d="M100.812 26.9231c.015-.033.023-.064.029-.093-.011.029-.02.059-.029.093M56.432 6.02344c-.003.05447.015.116.037.17451-.008-.06052.012-.13921-.037-.17451M87.959 41.9272c-.001-.006-.001-.011-.002-.017-.014.01-.025.022-.039.032zM137.258 30.2254c.011-.0696.004-.1534-.018-.2492-.003-.0061-.006-.0131-.01-.0192-.013.1009-.118.2431.028.2684M121.626 25.6621c-.006.0081-.012.0162-.017.0232.019.0868.043.1533.072.2028.058-.0797.001-.1544-.055-.226M26.6261 20.3927c-.6222-.3793-1.2143-.5437-1.9533-.3632-1.469.3591-2.0621.0262-2.7112-1.3729-.1538-.3319-.2557-.695-.4505-.9986-.2816-.4409-.4343-1.037-1.3021-1.1551.8957.9351 1.0156 2.07 1.5009 3.0465.2576.5185.5033.9058 1.0655 1.158.6671.2996 1.2233.3975 1.9543.1332 1.2213-.4399 1.9064.0181 2.2948 1.1953.2946-.6657.3046-1.2145-.3984-1.6432M109.596 21.6529c.773.6951 1.365 1.6019 2.409 1.956.077-.0393.154-.0777.231-.116-.593-.3571-1.201-.7203-1.541-1.3477-.749-1.38-1.896-2.2021-3.355-2.6863-1.572-.5215-3.301.0535-4.173 1.4879-.325.5336-.575 1.1197-1.147 1.4435.685-.006.768-.0222 1.241-.8655.417-.7455 1.024-1.1147 1.784-1.3779 1.904-.6577 3.271.355 4.551 1.506M101.956 22.4286c.023-.011.042-.026.063-.038-.03 0-.059.001-.091.001zM98.1314 23.5396c-.5981-.1473-1.2323-.1756-1.7805.0181-.9178.3248-1.8065.2482-2.7262.1362-.774-.0948-1.5499-.1796-2.3228-.2703-.7899-.0928-1.6078-.3501-2.5695-.0636.4973.3571.9167.461 1.3781.5124 1.3631.1534 2.7223.344 4.0834.5105.2726.0333.5762.1079.8218.0282 1.464-.4791 2.9549-.6254 4.4798-.4731.3246.0323.4943-.116.5335-.4196-.6304.2471-1.2664.1765-1.8976.0212M100.035 23.4707c-.001.016-.005.03-.006.046.003-.001.006-.002.008-.003h.006c-.003-.012-.006-.025-.008-.038zM81.0009 27.0521c-.7569-.0161-1.7166.119-2.146-.4691-.7739-1.0612-1.8954-1.9247-2.2449-3.2481-.1997-.7576-.5991-1.4476-.677-2.2465-.024-.2462-.024-.6951-.5463-.6113.2627 1.0773.1828 2.2.736 3.231.4464.8322 1.1204 1.4475 1.6517 2.188 1.1774 1.6422 1.428 1.7764 3.2795 1.383-.0679-.0646-.0849-.1403-.053-.227M87.9641 41.9258c-.005.002-.046.017-.05.019.02-.005.0379-.006.0559-.009-.002-.004-.0049-.007-.0059-.01"/>
          <path d="M89.228 42.8644c.711.2119 1.412-.1846 1.5718-.8715.0659-.2825-.0259-.5236-.3755-.5266-.001-.005-.001-.0101-.002-.0151-.008.005-.0139.0091-.0219.0131-.002 0 .0049 0 .0119.001-.006 0-.0099-.001-.0169-.001 0 0 .0349.001.0289.002.1868.3732.1898.7455-.2027.9513-.4034.2118-.8328.2794-1.3121.0968-.3575-.1372-.4944-.6416-.9407-.579.2726.5134.7419.7757 1.2592.929M101.221 23.0729c.235-.2138.865.0273.717-.6334-.312.118-.607.2582-.717.6334M101.959 22.4316c-.002-.003-.029-.041-.029-.041.005.018.007.032.01.048.006-.002.012-.005.019-.007M87.5938 23.2869c.2806.4378.6561.35 1.2173.2048-.4803-.4711-.8568-.2744-1.2173-.2048M87.5836 23.2882c.003-.001.005-.001.008-.002-.01-.016-.0211-.027-.0311-.043.003.003.0231.045.0231.045M100.043 23.5148c.028.1201.095.1978.228.1625.049-.0132.076-.11.113-.1685-.113.003-.227.004-.341.006M24.5273 50.3955v.014c0-.005.001-.009 0-.014M90.3203 40.709c.032.2471.064.4943.102.7414.562-.3218.286-.5387-.102-.7414M88.4894 15.7101c.09-.1029.1791-.2068.2691-.3097-.194-.0071-.5161-.0847-.5591-.0061-.136.2432.208.1836.29.3158M23.8462 50.1394l-.02.0202c.232.0776.464.1553.694.2269-.117-.3742-.385-.3399-.674-.2471M87.4643 23.6682c.139-.1029.174-.229.116-.3743-.141.0495-.284.0949-.426.1403.104.0786.207.1563.31.234"/>
          <path d="M87.5865 23.2912c-.002-.003-.023-.045-.024-.049.009.018.012.034.019.05 0 0 .003 0 .005-.001M90.3685 40.6603l-.056-.005-.002.048v.002l.001-.001c.003.001.005.003.008.004 0-.003-.001-.006-.001-.009.016-.01.05-.039.05-.039M34.166 27.5979c0 .002 0 .004.001.006h.001l.003.004c.013-.007.022-.016.035-.022-.015.006-.027.008-.04.012M34.0237 27.5172c-.005.0837.055.1089.141.0807-.01-.0737-.02-.1473-.029-.2209-.04.0464-.11.0917-.112.1402M61.788 9.19107c.01 0 .019-.00201.03-.00101.005-.001.0089.00001.0149-.001h-.0079.005c.002 0-.019.001-.032.001zc-.049-.33188-.193-.53262-.538-.45293.167.16947.223.47815.538.45293M61.1992 8.74747c.018-.00505.0331-.00706.0501-.0111-.003-.00303-.0061-.00706-.0091-.01109-.004.00201-.02.01008-.031.01613l.0251-.01311c-.005-.05346-.0161-.09987-.0281-.14627 0 .05347.002.10592-.002.16241-.001.00202-.005.00303-.005.00303"/>
          <path d="M61.6591 9.32059c.014.04943.094.07969.145.11803-.006-.08272-.012-.16544-.017-.24917-.095.00807-.15.05347-.128.13114M131.356 24.5718c.125-.0484.25-.0958.375-.1462.15.007.405.1089.339-.1675-.039-.1614-.28-.1876-.435-.0141-.137-.1069-.271-.1201-.403.0101-.477-.0313-.978-.2018-1.478.1926.584.4711 1.097.2088 1.602.1251M128.83 24.5076c.111.0051.167-.0393.178-.117.049.3107.33.1846.54.1705.024-.002.08-.1796.053-.2088-.174-.1836-.376-.2229-.584-.0393l-.017-.0354c0 .0111.001.0212.001.0313-.118-.0434-.22-.0363-.26.111-.006.0202.056.0857.089.0877"/>
      </g>
    </symbol>
    
    <symbol id="cloud1" width="96" height="31" viewBox="0 0 96 31">
      <g opacity="0.8">
        <path d="M89.6293 22.0826C87.7419 22.4331 85.8178 22.3407 83.904 22.3877C82.8207 22.4142 81.8233 22.2197 80.9695 21.6716C79.6864 20.847 78.2748 20.4447 76.8545 19.9895C75.6271 19.5958 74.7171 19.7556 73.9827 20.8843C73.5755 21.5096 72.1693 21.9406 71.6887 21.5004C70.8965 20.7746 69.8742 20.9226 69.0226 20.5079C68.5425 20.2741 67.9393 20.2341 67.7163 19.6217C68.765 18.8597 69.9196 19.3906 70.9543 19.4419C72.3135 19.5088 73.2801 19.153 74.0383 18.1242C74.3737 17.6695 74.823 17.4292 75.3074 17.3228C76.1741 17.1328 77.0738 16.9103 77.9454 16.961C79.9802 17.0793 82.0193 17.2451 84.0282 17.6209C87.2035 18.2155 90.361 18.9429 93.701 18.647C92.9585 18.5552 92.2829 18.4877 91.6127 18.3867C90.0256 18.1474 88.4407 17.8953 86.86 17.6101C85.6839 17.3979 84.5617 17.1301 83.4919 16.6041C82.3125 16.0241 81.3016 15.1881 80.2102 14.4759C79.2015 13.8176 78.1344 13.5854 76.9615 13.8484C76.3853 13.9774 75.8182 14.1637 75.2361 14.2442C73.7753 14.4456 72.4199 14.2172 71.3166 13.1269C71.1346 12.9471 70.9278 12.7996 70.9073 12.508C70.8511 11.6953 70.4683 10.9614 70.3673 10.1454C70.2209 8.96279 70.1486 7.67862 69.6166 6.66122C69.0275 5.53312 68.2687 4.4331 67.341 3.48158C66.7675 2.8935 66.1292 2.50306 65.3678 2.39992C63.7887 2.18607 62.3042 1.69789 60.8872 1.00559C59.1127 0.138316 57.3517 -0.311519 55.3358 0.245242C53.6752 0.703719 52.113 1.18974 50.8644 2.45284C50.0123 3.31471 48.9209 3.58905 47.7221 3.4022C47.5347 3.37304 47.4429 3.25316 47.4574 3.06307C47.4153 3.13381 47.3705 3.22669 47.3376 3.22291C46.1949 3.08575 45.0452 3.09385 43.8971 2.91672C42.3753 2.68235 40.9718 2.05215 39.4025 1.92201C37.217 1.74056 35.5511 2.47877 34.0752 3.94708C33.4185 4.59997 32.7408 5.18589 31.8044 5.47048C30.1655 5.96838 28.4633 5.68811 26.8146 5.98998C24.067 5.38893 21.6623 6.34693 19.4056 7.73694C18.0237 8.58801 17.1224 9.81818 17.1429 11.5808C17.1483 12.029 17.4231 12.3871 17.374 12.8126C17.2115 14.2134 17.9643 15.2141 18.8105 16.1872C19.6983 17.2078 20.727 18.0373 22.0792 18.2803C24.4099 18.6994 26.7466 18.7814 28.9601 17.7478C30.3502 17.0987 31.7191 16.3924 32.6652 15.0926C33.1075 14.4856 33.5454 13.9013 34.4127 13.7339C34.9679 13.6269 35.536 13.1809 35.5565 12.4999C35.5759 11.8389 35.2606 11.3815 34.6298 10.9738C33.7491 10.4046 32.7689 10.389 31.8395 10.1703C30.3577 9.82196 28.8311 9.7037 27.3471 10.2696C26.0154 10.7773 25.1897 11.8173 25.1687 13.0048C26.5274 11.1639 27.818 10.4505 29.3085 10.5153C30.8065 10.5807 32.2575 10.922 33.7215 11.1931C34.0239 11.2492 34.2685 11.4129 34.4926 11.6148C35.1099 12.1721 35.0472 12.5545 34.2777 12.9422C33.7885 13.189 33.2285 13.3013 32.8623 13.7765C31.1775 15.9636 28.9899 17.2818 26.2287 17.649C24.4283 17.8888 22.6181 17.8207 21.0386 16.9761C18.8412 15.8005 17.7995 13.8451 18.0042 11.2822C18.0895 10.2146 18.5761 9.39751 19.4007 8.81051C21.718 7.16074 24.377 6.6083 27.1441 6.81837C28.573 6.92691 29.936 6.75518 31.3125 6.54836C32.9007 6.31021 34.1 5.33763 35.1455 4.20899C36.5139 2.73096 38.2404 2.55167 40.0592 2.74878C41.4902 2.90376 42.9067 3.19321 44.3297 3.42272C43.1783 3.20995 42.4396 4.13933 41.5032 4.48548C40.4928 4.85917 40.38 6.0969 39.7573 6.87291C40.0883 7.89301 39.7508 9.05567 40.5047 9.998C41.3466 11.05 42.472 11.7601 43.727 11.7633C44.5856 11.7655 45.4632 11.7347 46.3283 11.7936C47.4704 11.8713 47.452 11.9005 47.6573 13.0605C47.7183 13.4045 47.735 13.7036 47.6389 14.0541C47.3759 15.0148 47.607 15.9987 47.8155 16.9157C48.0331 17.8747 48.9825 18.3446 49.8006 18.7793C52.397 20.1601 54.8309 19.3771 57.0919 17.973C58.6564 17.0015 59.5987 14.2312 57.8399 12.5901C57.4673 12.2423 57.1557 11.806 56.7604 11.523C56.0486 11.0138 55.4325 10.3501 54.5134 10.1265C53.382 9.85112 52.4192 10.268 51.4439 10.6973C51.2992 10.7611 51.1604 10.9301 51.2975 11.1104C51.3618 11.1947 51.506 11.2525 51.6172 11.2579C51.736 11.2638 51.8586 11.1941 51.9801 11.1585C53.5159 10.7065 54.8055 11.0278 55.817 12.3298C56.0163 12.5863 56.3883 12.7483 56.5822 12.9633C56.9375 13.3569 57.6217 13.5017 57.6676 14.1162C57.74 15.0866 57.7702 16.1451 56.9213 16.7936C54.9718 18.2825 52.8803 19.0293 50.3935 17.9795C49.2379 17.4919 48.6973 16.7623 48.639 15.5942C48.6012 14.8274 48.6163 14.0568 48.6325 13.2883C48.6649 11.7552 47.8808 10.8599 46.3887 10.7837C45.9632 10.7621 45.515 10.7265 45.1105 10.8296C44.3707 11.0186 43.6579 10.828 42.9683 10.7022C41.6625 10.464 41.0388 9.39264 40.8357 8.2478C40.6878 7.41563 41.0037 6.5597 41.7457 5.87711C42.9467 4.77223 44.3961 4.54326 45.8671 4.62967C47.0497 4.69879 48.2318 4.4439 49.4048 4.69933C49.6278 4.74793 49.7855 4.58916 49.9707 4.47576C50.8374 3.94438 51.5989 3.30338 52.343 2.60567C53.3415 1.67036 54.6954 1.48135 55.9806 1.13466C57.309 0.776623 58.5613 0.780402 59.8385 1.25724C61.31 1.8059 62.8286 2.2282 64.3698 2.48525C65.607 2.69207 66.4878 3.32336 67.2114 4.25975C68.0819 5.38569 68.6857 6.66662 68.9379 8.05177C69.1787 9.3759 69.5162 10.6849 69.6021 12.0452C69.6431 12.6922 69.9585 13.4374 70.4526 13.8273C71.9485 15.0089 73.5642 15.8669 75.6049 15.1028C77.4982 14.3932 79.3635 14.4062 81.0068 15.7913C81.367 16.0948 82.0296 16.097 82.063 16.7391C81.8438 16.9059 81.6418 16.8422 81.4263 16.8109C79.7852 16.5711 78.1619 16.2147 76.4728 16.3929C75.1994 16.5274 74.0146 16.7277 73.271 17.9147C73.1727 18.0718 73.002 18.1123 72.8827 18.2182C72.0721 18.9359 71.1136 18.762 70.2101 18.6011C69.1679 18.4158 68.1834 18.4623 67.2395 18.9229C66.6816 19.1946 66.6357 19.5677 67.0386 20.0489C67.4933 20.5921 68.1246 20.8443 68.7629 21.0868C69.2456 21.2704 69.1857 21.5382 68.8655 21.8407C68.3805 22.2986 68.1575 22.3056 67.7763 21.7251C66.9544 20.4733 65.7841 19.8485 64.332 19.6811C64.0857 19.6525 63.8265 19.6152 63.7779 19.9684C63.9351 20.1444 64.1349 20.2028 64.3396 20.2751C66.4926 21.0366 67.7033 22.5016 67.2724 24.9279C67.1455 25.6424 66.875 26.1354 66.0973 26.4092C65.0448 26.7797 63.9826 26.8952 62.8923 26.9482C61.1961 27.0302 59.5064 26.8645 57.8377 26.6425C55.7603 26.366 53.7276 25.604 51.5967 26.3055C51.4164 26.3649 51.1247 26.3207 50.9779 26.2062C50.1327 25.5463 49.4944 26.1057 48.7789 26.4827C48.018 26.8834 47.5223 27.5676 47.1248 28.2232C46.5897 29.105 45.7856 29.4074 44.9491 29.6321C42.9029 30.1823 40.7731 30.0727 38.7086 29.9399C36.3978 29.7914 34.3269 28.7264 32.4843 27.2862C31.4124 26.4481 30.3453 25.6024 29.0584 25.0905C28.425 24.8383 27.2661 25.016 26.7606 25.4485C26.0386 26.0658 25.2891 26.6512 24.5379 27.2338C23.6966 27.8862 22.656 27.8959 21.6726 28.0682C19.729 28.4078 17.7844 28.6697 15.9062 27.729C16.7973 28.3247 17.7234 28.7745 18.8234 28.8344C19.5962 28.8766 20.3501 28.7653 21.1131 28.7313C23.2645 28.6357 25.2205 28.0957 26.7747 26.5043C27.38 25.8843 28.1004 25.7839 28.8932 26.062C29.9062 26.4179 30.8232 26.9125 31.6354 27.648C33.2846 29.1433 35.2643 30.0527 37.3947 30.6333C39.4792 31.2008 41.6058 30.9902 43.7049 30.7909C44.5716 30.7089 45.5215 30.7337 46.3132 30.2423C47.1394 29.7293 47.9537 29.2 48.5316 28.3733C49.098 27.5627 49.8055 27.0189 50.9055 27.2587C51.2187 27.3267 51.5859 27.2214 51.9132 27.1361C52.5023 26.9827 53.1066 26.9606 53.6887 27.0356C55.4227 27.2598 57.1503 27.5859 58.8724 27.8252C60.5222 28.0547 62.2346 28.3835 63.9421 28.0622C64.609 27.9369 65.2657 27.7841 65.9515 27.7171C67.213 27.594 68.2612 26.2996 68.3962 25.0089C68.4685 24.315 68.3773 23.6405 68.2931 22.9671C68.2255 22.4298 68.4113 22.196 68.9098 22.0496C69.7063 21.8153 70.4882 21.8282 71.308 21.9173C72.5198 22.0491 73.751 22.2629 74.6739 21.0069C75.0239 20.5306 75.7491 20.4123 76.4517 20.5781C77.7456 20.8837 78.9941 21.2866 80.1562 21.9373C80.8993 22.3531 81.6613 22.8375 82.4945 22.898C83.9126 23.0012 85.3366 23.1351 86.7688 23.0411C89.3997 22.8678 91.9654 22.2251 94.5866 21.9848C94.9171 21.9546 95.2455 21.8299 95.4388 21.4005C93.4639 21.6684 91.535 21.7283 89.6293 22.0826Z"/>
        <path d="M18.7852 23.1377C18.8522 23.0621 18.8057 22.8887 18.8182 22.7613C19.0153 20.7907 17.9676 19.3986 16.563 18.278C15.1044 17.1143 12.4141 17.8487 11.4733 19.4758C12.0798 19.3581 12.5237 19.02 13.0221 18.8224C14.1767 18.3639 15.247 18.2208 16.3427 19.1399C17.0879 19.7652 17.2651 20.6417 17.7505 21.3707C18.0951 21.8875 17.8321 23.5735 17.3639 23.9444C16.1521 24.9051 14.8415 25.4603 13.2041 25.3696C11.124 25.254 9.73233 24.1329 8.47732 22.6797C7.97295 22.0954 7.47503 21.5019 6.72981 21.2163C5.23557 20.6439 3.81748 19.7793 2.11371 19.9899C1.98897 20.0055 1.85775 19.9758 1.7303 19.9613C1.13952 19.8938 0.836564 19.6297 0.824143 18.9671C0.801462 17.7423 1.44625 16.8005 2.24008 16.0828C4.19279 14.318 6.77789 14.1847 9.2069 13.6857C9.24308 13.6781 9.28898 13.7073 9.32786 13.7246C10.1271 14.0696 10.9981 13.9746 11.8271 14.0572C13.4957 14.2246 15.1358 13.9989 16.7051 12.9405C16.1029 12.7077 15.7082 12.9599 15.3221 13.0981C14.3193 13.4578 13.2883 13.4632 12.2796 13.2963C9.5838 12.8497 7.01386 13.0463 4.37262 13.913C2.60676 14.4925 1.52888 15.5579 0.525524 16.9285C0.0465259 17.5825 0.0529955 18.3142 0.00493369 19.054C-0.0463682 19.8473 0.302488 20.3242 1.04826 20.6093C1.42897 20.7551 1.79727 20.7243 2.17151 20.7783C2.80171 20.869 3.50427 20.5882 4.05077 20.9274C4.64749 21.2973 5.29174 21.4506 5.91816 21.6991C6.64773 21.9885 7.35084 22.3492 7.7672 23.1641C8.29696 24.202 9.31706 24.9014 10.2535 25.463C12.2645 26.6689 14.4586 26.5101 16.6187 25.6893C17.818 25.2346 18.0443 23.972 18.7852 23.1377Z" />
        <path d="M47.8016 3.03472C47.8226 3.02878 47.8469 2.95858 47.8453 2.9575C47.7011 2.86786 47.5947 2.95804 47.4824 3.02608C47.5845 3.13517 47.6957 3.06604 47.8016 3.03472Z" />
        <path d="M47.4822 3.02668C47.4811 3.0256 47.48 3.02506 47.479 3.02344L47.4552 3.04288C47.4547 3.04936 47.4563 3.05422 47.4557 3.0607C47.4617 3.05044 47.4676 3.04072 47.4735 3.03154C47.4762 3.03046 47.4795 3.0283 47.4822 3.02668Z" />
      </g>
    </symbol>
  </defs>
</svg>