<svg xmlns="http://www.w3.org/2000/svg" width="36" height="36" viewBox="0 0 36 36" fill="none"><path d="M17.9055 35.8135C27.7954 35.8135 35.8123 27.7978 35.8123 17.9054C35.8123 8.01558 27.7954 -7.41496e-05 17.9055 -7.41496e-05C8.01691 -7.41496e-05 0 8.01558 0 17.9054C0 27.7978 8.01691 35.8135 17.9055 35.8135Z" fill="#E30613"></path><path d="M16.6866 1.97584V33.2646L13.6152 32.7936V2.44942L16.6866 1.97584Z" fill="white"></path><path d="M22.7672 2.77501L22.8275 29.3067C22.8275 29.3067 21.4093 30.0767 17.9272 30.8442L17.8682 27.95L19.2839 26.7705V6.10639L18.1056 5.5185V1.97483L20.8189 2.2135L22.7672 2.77501Z" fill="white"></path><path d="M24.0664 3.27572C24.0664 3.27572 25.4532 3.71789 27.0473 4.98537L27.1089 30.4003L24.1543 32.0547L24.0664 3.27572Z" fill="white"></path><path d="M8.54231 4.92699V26.8887C6.43947 26.1501 4.054 21.1053 4.37809 17.2375C4.37809 17.2375 2.24134 16.8581 2.19486 17.3267C1.34066 25.8875 9.83366 31.7941 12.3762 32.4385V2.86309L8.54231 4.92699Z" fill="white"></path><path d="M28.4939 29.1328C28.4939 29.1328 28.4173 24.9196 28.1396 25.2362C34.0814 18.4604 28.524 9.82792 28.524 9.82792V6.28676C28.524 6.28676 40.0155 17.1351 28.4939 29.1328Z" fill="white"></path></svg>